<svg width="18" height="18" viewBox="0 0 18 18" fill="none" xmlns="http://www.w3.org/2000/svg">
<path fill-rule="evenodd" clip-rule="evenodd" d="M12.7704 11.5084L16.9084 15.3963L15.869 16.4994L11.6627 12.547C10.646 13.2925 9.39566 13.7395 8.03756 13.7395C5.16933 13.7393 2.68483 11.7529 2.05746 8.95823C1.4301 6.16359 2.82768 3.30825 5.42139 2.08556C8.01511 0.862859 11.1112 1.59985 12.8735 3.85947C14.6358 6.11909 14.593 9.29692 12.7704 11.5084ZM4.77662 10.8761C5.6396 11.7425 6.81384 12.2281 8.03758 12.2246H8.03833C10.584 12.2217 12.6469 10.1618 12.6498 7.61997C12.6473 5.07793 10.5841 3.01783 8.03833 3.01532C6.81408 3.01148 5.63921 3.4971 4.77587 4.36384C3.90562 5.23279 3.42535 6.38964 3.42535 7.61997C3.4222 8.84198 3.90877 10.0145 4.77662 10.8761Z" fill="black"/>
<mask id="mask0" mask-type="alpha" maskUnits="userSpaceOnUse" x="1" y="1" width="16" height="16">
<path fill-rule="evenodd" clip-rule="evenodd" d="M12.7704 11.5084L16.9084 15.3963L15.869 16.4994L11.6627 12.547C10.646 13.2925 9.39566 13.7395 8.03756 13.7395C5.16933 13.7393 2.68483 11.7529 2.05746 8.95823C1.4301 6.16359 2.82768 3.30825 5.42139 2.08556C8.01511 0.862859 11.1112 1.59985 12.8735 3.85947C14.6358 6.11909 14.593 9.29692 12.7704 11.5084ZM4.77662 10.8761C5.6396 11.7425 6.81384 12.2281 8.03758 12.2246H8.03833C10.584 12.2217 12.6469 10.1618 12.6498 7.61997C12.6473 5.07793 10.5841 3.01783 8.03833 3.01532C6.81408 3.01148 5.63921 3.4971 4.77587 4.36384C3.90562 5.23279 3.42535 6.38964 3.42535 7.61997C3.4222 8.84198 3.90877 10.0145 4.77662 10.8761Z" fill="white"/>
</mask>
<g mask="url(#mask0)">
<rect width="18" height="18" fill="#BD10E0"/>
<rect width="18" height="18" fill="#909090"/>
</g>
</svg>
