<svg fill="none" height="24" viewBox="0 0 24 24" width="24" xmlns="http://www.w3.org/2000/svg"><circle cx="12" cy="12" fill="#f067e4" r="12"/><path d="m12.0001 12c1.4733 0 2.6666-1.1933 2.6666-2.66665 0-1.47333-1.1933-2.66666-2.6666-2.66666-1.4734 0-2.66669 1.19333-2.66669 2.66666 0 1.47335 1.19329 2.66665 2.66669 2.66665zm0 1.3334c-1.78 0-5.33335.8933-5.33335 2.6666v.6667c0 .3667.3.6667.66666.6667h9.33329c.3667 0 .6667-.3.6667-.6667v-.6667c0-1.7733-3.5533-2.6666-5.3333-2.6666z" fill="#fff"/></svg>