<svg width="99" height="32" viewBox="0 0 99 32" fill="none" xmlns="http://www.w3.org/2000/svg">
<g clip-path="url(#clip0)">
<path d="M-1 4H23V28H-1V4Z" fill="white"/>
<path d="M29 12H31.1951V15.4402H33.7982V12H36V21H33.7982V17.1412H31.1951V21H29V12Z" fill="white"/>
<path d="M39.1207 18.3069C39.1207 17.6855 39.4192 17.3734 39.9073 17.1136C40.5659 17.7202 41.2188 18.3437 41.8364 19.0267C41.4034 19.3544 41.0384 19.5052 40.5171 19.5052C39.8175 19.5052 39.1207 19.0558 39.1207 18.3069ZM43.7682 16.1518C43.7456 16.7102 43.597 17.2835 43.1981 17.7209C42.7107 17.2481 42.2084 16.7866 41.6991 16.3379C42.6244 15.8 43.568 15.2409 43.568 14.1431C43.568 12.5202 42.0755 12 40.5525 12C39.1901 12 37.6586 12.5443 37.6586 14.0794C37.6586 14.8417 38.0094 15.4376 38.709 15.9876C37.6366 16.488 37 17.149 37 18.3558C37 20.1507 38.6369 21 40.2914 21C41.2372 21 42.2495 20.8408 42.9958 20.1896C43.1875 20.3892 43.3424 20.6136 43.5192 20.8507H46L44.4558 19.1301C45.2622 18.3296 45.7376 17.2587 45.7906 16.1511H43.7682V16.1518ZM39.6576 14.192C39.6576 13.756 40.041 13.4191 40.5815 13.4191C41.117 13.4191 41.5513 13.681 41.5513 14.192C41.5513 14.766 40.9146 15.1163 40.493 15.3662C40.1436 15.0901 39.6576 14.6924 39.6576 14.192Z" fill="white"/>
<path d="M49.2058 13.704H49.7919C50.6287 13.704 51.4041 13.8577 51.4041 14.6965C51.4041 15.7117 50.5027 15.738 49.7919 15.738H49.2058V13.704ZM47.0007 21H49.2058V17.4384H49.67C50.4879 17.4384 50.7735 17.8292 51.2249 19.3751L51.6999 21H54L53.1976 18.5473C52.7826 17.4537 52.7341 16.7686 52.0233 16.5629V16.5395C53.0864 16.2672 53.6099 15.468 53.6099 14.2676C53.6099 12.7217 52.4154 12 50.9399 12H47V21H47.0007Z" fill="white"/>
<path d="M61.3001 17.1829H62.0018C62.794 17.1829 63.7006 17.2744 63.7006 18.2559C63.7006 19.1709 62.82 19.2968 61.9787 19.2968H61.3001V17.1829V17.1829ZM59 21H62.6333C64.1819 21 66 20.5499 66 18.3928C66 17.3 65.4029 16.653 64.2577 16.41V16.3822C65.2211 16.0491 65.7734 15.4145 65.7734 14.2815C65.7734 12.7327 64.5777 12 62.9694 12H59.0007V21H59ZM61.3001 13.704H61.9653C62.7323 13.704 63.4739 13.7801 63.4739 14.6072C63.4739 15.3669 62.6951 15.5573 61.9422 15.5573H61.2994V13.704H61.3001Z" fill="white"/>
<path d="M67 12H69.3564V19.2212H73V21H67V12Z" fill="white"/>
<path d="M75.1936 16.5014C75.1936 14.9925 75.7069 13.7192 76.9971 13.7192C78.2905 13.7192 78.8077 14.9925 78.8077 16.5014C78.8077 17.9361 78.2905 19.2801 76.9971 19.2801C75.7069 19.2801 75.1936 17.9361 75.1936 16.5014ZM73 16.5014C73 19.2638 74.3927 21 76.9971 21C79.6053 21 81 19.2638 81 16.5014C81 13.7071 79.6261 12 76.9971 12C74.3661 12 73 13.7071 73 16.5014Z" fill="white"/>
<path d="M90 20.649C89.3023 20.811 88.5218 21 87.2758 21C84.8302 21 82 19.8294 82 16.5379C82 13.506 84.2304 12 87.2601 12C88.1983 12 89.1074 12.1989 89.9866 12.4487L89.7894 14.3277C88.9961 13.9158 88.2364 13.719 87.3961 13.719C85.6527 13.719 84.5218 14.9151 84.5218 16.5379C84.5218 18.2463 85.7991 19.2795 87.5888 19.2795C88.3933 19.2795 89.2105 19.0814 89.8775 18.828L90 20.649Z" fill="white"/>
<path d="M91 12H93.3006V15.6846H93.3253L95.9946 12H98.7537L95.5743 16.1942L99 21H96.0824L93.3253 16.9048H93.3006V21H91V12Z" fill="white"/>
</g>
<defs>
<clipPath id="clip0">
<rect width="99" height="32" fill="white"/>
</clipPath>
</defs>
</svg>
