<svg width="24" height="24" viewBox="0 0 24 24" fill="none" xmlns="http://www.w3.org/2000/svg">
<circle cx="12" cy="12" r="12" fill="#32DBA3"/>
<path d="M12.2739 9.11419C12.0966 9.25604 11.8763 9.33332 11.6492 9.33332H6.66668C6.31305 9.33332 5.97392 9.4738 5.72387 9.72385C5.47382 9.9739 5.33334 10.313 5.33334 10.6667V13.3333C5.33334 13.6869 5.47382 14.0261 5.72387 14.2761C5.97392 14.5262 6.31305 14.6667 6.66668 14.6667C7.03487 14.6667 7.33334 14.9651 7.33334 15.3333V17.3333C7.33334 17.5101 7.40358 17.6797 7.52861 17.8047C7.65363 17.9298 7.8232 18 8.00001 18H9.33334C9.51015 18 9.67972 17.9298 9.80475 17.8047C9.92977 17.6797 10 17.5101 10 17.3333V15.6667C10 15.1144 10.4477 14.6667 11 14.6667H11.6492C11.8763 14.6667 12.0966 14.7439 12.2739 14.8858L13.7086 16.0336C14.3634 16.5574 15.3333 16.0912 15.3333 15.2527V8.74728C15.3333 7.90878 14.3634 7.4426 13.7086 7.96641L12.2739 9.11419ZM18.3333 12C18.3333 12.5935 18.1599 13.158 17.8487 13.6325C17.4449 14.2485 16.6667 13.8132 16.6667 13.0767V10.9372C16.6667 10.1973 17.4498 9.76334 17.8534 10.3835C18.1608 10.8558 18.3333 11.4146 18.3333 12Z" fill="white"/>
</svg>
