<svg width="1296" height="51" viewBox="0 0 1296 51" fill="none" xmlns="http://www.w3.org/2000/svg">
<g filter="url(#filter0_dd)">
<rect y="1" width="1296" height="49" fill="#EBFEFF"/>
</g>
<rect x="9" y="19" width="14" height="14" rx="3" fill="white" stroke="#CCCCCC" stroke-width="2"/>
<circle cx="55" cy="26" r="4" fill="#085FF7"/>
<path d="M67.936 21.432V30H69.076V26.34H71.86C72.14 26.34 72.364 26.384 72.532 26.472C72.7 26.552 72.836 26.664 72.94 26.808C73.044 26.944 73.12 27.108 73.168 27.3C73.216 27.484 73.256 27.68 73.288 27.888C73.328 28.096 73.352 28.308 73.36 28.524C73.368 28.74 73.376 28.944 73.384 29.136C73.392 29.32 73.408 29.488 73.432 29.64C73.464 29.792 73.52 29.912 73.6 30H74.872C74.752 29.856 74.66 29.692 74.596 29.508C74.54 29.316 74.496 29.116 74.464 28.908C74.432 28.7 74.412 28.488 74.404 28.272C74.396 28.056 74.384 27.844 74.368 27.636C74.344 27.428 74.308 27.228 74.26 27.036C74.22 26.844 74.152 26.672 74.056 26.52C73.968 26.36 73.844 26.224 73.684 26.112C73.532 26 73.332 25.92 73.084 25.872V25.848C73.604 25.704 73.98 25.436 74.212 25.044C74.452 24.652 74.572 24.196 74.572 23.676C74.572 22.98 74.34 22.432 73.876 22.032C73.42 21.632 72.784 21.432 71.968 21.432H67.936ZM71.452 25.38H69.076V22.392H71.908C72.444 22.392 72.832 22.528 73.072 22.8C73.312 23.072 73.432 23.424 73.432 23.856C73.432 24.168 73.376 24.424 73.264 24.624C73.16 24.816 73.016 24.972 72.832 25.092C72.656 25.204 72.448 25.28 72.208 25.32C71.968 25.36 71.716 25.38 71.452 25.38ZM80.2908 26.304H76.7268C76.7428 26.064 76.7948 25.84 76.8828 25.632C76.9708 25.416 77.0908 25.228 77.2428 25.068C77.3948 24.908 77.5748 24.784 77.7828 24.696C77.9988 24.6 78.2388 24.552 78.5028 24.552C78.7588 24.552 78.9908 24.6 79.1988 24.696C79.4148 24.784 79.5988 24.908 79.7508 25.068C79.9108 25.22 80.0348 25.404 80.1228 25.62C80.2188 25.836 80.2748 26.064 80.2908 26.304ZM81.2748 28.032H80.2668C80.1788 28.44 79.9948 28.744 79.7148 28.944C79.4428 29.144 79.0908 29.244 78.6588 29.244C78.3228 29.244 78.0308 29.188 77.7828 29.076C77.5348 28.964 77.3308 28.816 77.1708 28.632C77.0108 28.44 76.8948 28.224 76.8228 27.984C76.7508 27.736 76.7188 27.476 76.7268 27.204H81.3708C81.3868 26.828 81.3508 26.432 81.2628 26.016C81.1828 25.6 81.0308 25.216 80.8068 24.864C80.5908 24.512 80.2988 24.224 79.9308 24C79.5708 23.768 79.1148 23.652 78.5628 23.652C78.1388 23.652 77.7468 23.732 77.3868 23.892C77.0348 24.052 76.7268 24.276 76.4628 24.564C76.2068 24.852 76.0068 25.192 75.8628 25.584C75.7188 25.976 75.6468 26.408 75.6468 26.88C75.6628 27.352 75.7308 27.788 75.8508 28.188C75.9788 28.588 76.1668 28.932 76.4148 29.22C76.6628 29.508 76.9668 29.732 77.3268 29.892C77.6948 30.052 78.1268 30.132 78.6228 30.132C79.3268 30.132 79.9108 29.956 80.3748 29.604C80.8388 29.252 81.1388 28.728 81.2748 28.032ZM86.6402 25.788H87.6962C87.6562 25.42 87.5602 25.104 87.4082 24.84C87.2562 24.568 87.0602 24.344 86.8202 24.168C86.5882 23.992 86.3162 23.864 86.0042 23.784C85.7002 23.696 85.3722 23.652 85.0202 23.652C84.5322 23.652 84.1042 23.74 83.7362 23.916C83.3682 24.084 83.0602 24.32 82.8122 24.624C82.5722 24.92 82.3922 25.272 82.2722 25.68C82.1522 26.08 82.0922 26.512 82.0922 26.976C82.0922 27.44 82.1522 27.868 82.2722 28.26C82.4002 28.644 82.5842 28.976 82.8242 29.256C83.0722 29.536 83.3762 29.752 83.7362 29.904C84.1042 30.056 84.5242 30.132 84.9962 30.132C85.7882 30.132 86.4122 29.924 86.8682 29.508C87.3322 29.092 87.6202 28.5 87.7322 27.732H86.6882C86.6242 28.212 86.4482 28.584 86.1602 28.848C85.8802 29.112 85.4882 29.244 84.9842 29.244C84.6642 29.244 84.3882 29.18 84.1562 29.052C83.9242 28.924 83.7362 28.756 83.5922 28.548C83.4482 28.332 83.3402 28.088 83.2682 27.816C83.2042 27.544 83.1722 27.264 83.1722 26.976C83.1722 26.664 83.2042 26.364 83.2682 26.076C83.3322 25.78 83.4362 25.52 83.5802 25.296C83.7322 25.072 83.9322 24.892 84.1802 24.756C84.4282 24.62 84.7362 24.552 85.1042 24.552C85.5362 24.552 85.8802 24.66 86.1362 24.876C86.3922 25.092 86.5602 25.396 86.6402 25.788ZM89.6175 26.904C89.6175 26.528 89.6655 26.196 89.7615 25.908C89.8655 25.612 90.0055 25.364 90.1815 25.164C90.3575 24.964 90.5615 24.812 90.7935 24.708C91.0335 24.604 91.2855 24.552 91.5495 24.552C91.8135 24.552 92.0615 24.604 92.2935 24.708C92.5335 24.812 92.7415 24.964 92.9175 25.164C93.0935 25.364 93.2295 25.612 93.3255 25.908C93.4295 26.196 93.4815 26.528 93.4815 26.904C93.4815 27.28 93.4295 27.616 93.3255 27.912C93.2295 28.2 93.0935 28.444 92.9175 28.644C92.7415 28.836 92.5335 28.984 92.2935 29.088C92.0615 29.192 91.8135 29.244 91.5495 29.244C91.2855 29.244 91.0335 29.192 90.7935 29.088C90.5615 28.984 90.3575 28.836 90.1815 28.644C90.0055 28.444 89.8655 28.2 89.7615 27.912C89.6655 27.616 89.6175 27.28 89.6175 26.904ZM88.5375 26.904C88.5375 27.36 88.6015 27.784 88.7295 28.176C88.8575 28.568 89.0495 28.912 89.3055 29.208C89.5615 29.496 89.8775 29.724 90.2535 29.892C90.6295 30.052 91.0615 30.132 91.5495 30.132C92.0455 30.132 92.4775 30.052 92.8455 29.892C93.2215 29.724 93.5375 29.496 93.7935 29.208C94.0495 28.912 94.2415 28.568 94.3695 28.176C94.4975 27.784 94.5615 27.36 94.5615 26.904C94.5615 26.448 94.4975 26.024 94.3695 25.632C94.2415 25.232 94.0495 24.888 93.7935 24.6C93.5375 24.304 93.2215 24.072 92.8455 23.904C92.4775 23.736 92.0455 23.652 91.5495 23.652C91.0615 23.652 90.6295 23.736 90.2535 23.904C89.8775 24.072 89.5615 24.304 89.3055 24.6C89.0495 24.888 88.8575 25.232 88.7295 25.632C88.6015 26.024 88.5375 26.448 88.5375 26.904ZM95.7641 23.796V30H96.7841V26.136C96.7841 26.016 96.8121 25.868 96.8681 25.692C96.9321 25.508 97.0281 25.332 97.1561 25.164C97.2921 24.996 97.4641 24.852 97.6721 24.732C97.8881 24.612 98.1441 24.552 98.4401 24.552C98.6721 24.552 98.8601 24.588 99.0041 24.66C99.1561 24.724 99.2761 24.82 99.3641 24.948C99.4521 25.068 99.5121 25.212 99.5441 25.38C99.5841 25.548 99.6041 25.732 99.6041 25.932V30H100.624V26.136C100.624 25.656 100.768 25.272 101.056 24.984C101.344 24.696 101.74 24.552 102.244 24.552C102.492 24.552 102.692 24.588 102.844 24.66C103.004 24.732 103.128 24.832 103.216 24.96C103.304 25.08 103.364 25.224 103.396 25.392C103.428 25.56 103.444 25.74 103.444 25.932V30H104.464V25.452C104.464 25.132 104.412 24.86 104.308 24.636C104.212 24.404 104.072 24.216 103.888 24.072C103.712 23.928 103.496 23.824 103.24 23.76C102.992 23.688 102.712 23.652 102.4 23.652C101.992 23.652 101.616 23.744 101.272 23.928C100.936 24.112 100.664 24.372 100.456 24.708C100.328 24.324 100.108 24.052 99.7961 23.892C99.4841 23.732 99.1361 23.652 98.7521 23.652C97.8801 23.652 97.2121 24.004 96.7481 24.708H96.7241V23.796H95.7641ZM105.995 23.796V30H107.015V26.136C107.015 26.016 107.043 25.868 107.099 25.692C107.163 25.508 107.259 25.332 107.387 25.164C107.523 24.996 107.695 24.852 107.903 24.732C108.119 24.612 108.375 24.552 108.671 24.552C108.903 24.552 109.091 24.588 109.235 24.66C109.387 24.724 109.507 24.82 109.595 24.948C109.683 25.068 109.743 25.212 109.775 25.38C109.815 25.548 109.835 25.732 109.835 25.932V30H110.855V26.136C110.855 25.656 110.999 25.272 111.287 24.984C111.575 24.696 111.971 24.552 112.475 24.552C112.723 24.552 112.923 24.588 113.075 24.66C113.235 24.732 113.359 24.832 113.447 24.96C113.535 25.08 113.595 25.224 113.627 25.392C113.659 25.56 113.675 25.74 113.675 25.932V30H114.695V25.452C114.695 25.132 114.643 24.86 114.539 24.636C114.443 24.404 114.303 24.216 114.119 24.072C113.943 23.928 113.727 23.824 113.471 23.76C113.223 23.688 112.943 23.652 112.631 23.652C112.223 23.652 111.847 23.744 111.503 23.928C111.167 24.112 110.895 24.372 110.687 24.708C110.559 24.324 110.339 24.052 110.027 23.892C109.715 23.732 109.367 23.652 108.983 23.652C108.111 23.652 107.443 24.004 106.979 24.708H106.955V23.796H105.995ZM120.533 26.304H116.969C116.985 26.064 117.037 25.84 117.125 25.632C117.213 25.416 117.333 25.228 117.485 25.068C117.637 24.908 117.817 24.784 118.025 24.696C118.241 24.6 118.481 24.552 118.745 24.552C119.001 24.552 119.233 24.6 119.441 24.696C119.657 24.784 119.841 24.908 119.993 25.068C120.153 25.22 120.277 25.404 120.365 25.62C120.461 25.836 120.517 26.064 120.533 26.304ZM121.517 28.032H120.509C120.421 28.44 120.237 28.744 119.957 28.944C119.685 29.144 119.333 29.244 118.901 29.244C118.565 29.244 118.273 29.188 118.025 29.076C117.777 28.964 117.573 28.816 117.413 28.632C117.253 28.44 117.137 28.224 117.065 27.984C116.993 27.736 116.961 27.476 116.969 27.204H121.613C121.629 26.828 121.593 26.432 121.505 26.016C121.425 25.6 121.273 25.216 121.049 24.864C120.833 24.512 120.541 24.224 120.173 24C119.813 23.768 119.357 23.652 118.805 23.652C118.381 23.652 117.989 23.732 117.629 23.892C117.277 24.052 116.969 24.276 116.705 24.564C116.449 24.852 116.249 25.192 116.105 25.584C115.961 25.976 115.889 26.408 115.889 26.88C115.905 27.352 115.973 27.788 116.093 28.188C116.221 28.588 116.409 28.932 116.657 29.22C116.905 29.508 117.209 29.732 117.569 29.892C117.937 30.052 118.369 30.132 118.865 30.132C119.569 30.132 120.153 29.956 120.617 29.604C121.081 29.252 121.381 28.728 121.517 28.032ZM122.67 23.796V30H123.69V26.496C123.69 26.216 123.726 25.96 123.798 25.728C123.878 25.488 123.994 25.28 124.146 25.104C124.298 24.928 124.486 24.792 124.71 24.696C124.942 24.6 125.214 24.552 125.526 24.552C125.918 24.552 126.226 24.664 126.45 24.888C126.674 25.112 126.786 25.416 126.786 25.8V30H127.806V25.92C127.806 25.584 127.77 25.28 127.698 25.008C127.634 24.728 127.518 24.488 127.35 24.288C127.182 24.088 126.962 23.932 126.69 23.82C126.418 23.708 126.078 23.652 125.67 23.652C124.75 23.652 124.078 24.028 123.654 24.78H123.63V23.796H122.67ZM130.082 26.952C130.082 26.648 130.114 26.352 130.178 26.064C130.242 25.776 130.346 25.52 130.49 25.296C130.634 25.072 130.826 24.892 131.066 24.756C131.306 24.62 131.598 24.552 131.942 24.552C132.294 24.552 132.594 24.62 132.842 24.756C133.09 24.884 133.29 25.056 133.442 25.272C133.602 25.488 133.718 25.74 133.79 26.028C133.862 26.308 133.898 26.6 133.898 26.904C133.898 27.192 133.862 27.476 133.79 27.756C133.726 28.036 133.618 28.288 133.466 28.512C133.314 28.728 133.118 28.904 132.878 29.04C132.638 29.176 132.346 29.244 132.002 29.244C131.674 29.244 131.386 29.18 131.138 29.052C130.898 28.924 130.698 28.752 130.538 28.536C130.386 28.32 130.27 28.076 130.19 27.804C130.118 27.524 130.082 27.24 130.082 26.952ZM134.882 30V21.432H133.862V24.624H133.838C133.726 24.44 133.586 24.288 133.418 24.168C133.258 24.04 133.086 23.94 132.902 23.868C132.718 23.788 132.534 23.732 132.35 23.7C132.166 23.668 131.994 23.652 131.834 23.652C131.362 23.652 130.946 23.74 130.586 23.916C130.234 24.084 129.938 24.316 129.698 24.612C129.466 24.9 129.29 25.24 129.17 25.632C129.058 26.024 129.002 26.44 129.002 26.88C129.002 27.32 129.062 27.736 129.182 28.128C129.302 28.52 129.478 28.864 129.71 29.16C129.95 29.456 130.246 29.692 130.598 29.868C130.958 30.044 131.378 30.132 131.858 30.132C132.29 30.132 132.686 30.056 133.046 29.904C133.406 29.752 133.67 29.504 133.838 29.16H133.862V30H134.882ZM140.76 26.304H137.196C137.212 26.064 137.264 25.84 137.352 25.632C137.44 25.416 137.56 25.228 137.712 25.068C137.864 24.908 138.044 24.784 138.252 24.696C138.468 24.6 138.708 24.552 138.972 24.552C139.228 24.552 139.46 24.6 139.668 24.696C139.884 24.784 140.068 24.908 140.22 25.068C140.38 25.22 140.504 25.404 140.592 25.62C140.688 25.836 140.744 26.064 140.76 26.304ZM141.744 28.032H140.736C140.648 28.44 140.464 28.744 140.184 28.944C139.912 29.144 139.56 29.244 139.128 29.244C138.792 29.244 138.5 29.188 138.252 29.076C138.004 28.964 137.8 28.816 137.64 28.632C137.48 28.44 137.364 28.224 137.292 27.984C137.22 27.736 137.188 27.476 137.196 27.204H141.84C141.856 26.828 141.82 26.432 141.732 26.016C141.652 25.6 141.5 25.216 141.276 24.864C141.06 24.512 140.768 24.224 140.4 24C140.04 23.768 139.584 23.652 139.032 23.652C138.608 23.652 138.216 23.732 137.856 23.892C137.504 24.052 137.196 24.276 136.932 24.564C136.676 24.852 136.476 25.192 136.332 25.584C136.188 25.976 136.116 26.408 136.116 26.88C136.132 27.352 136.2 27.788 136.32 28.188C136.448 28.588 136.636 28.932 136.884 29.22C137.132 29.508 137.436 29.732 137.796 29.892C138.164 30.052 138.596 30.132 139.092 30.132C139.796 30.132 140.38 29.956 140.844 29.604C141.308 29.252 141.608 28.728 141.744 28.032ZM143.641 26.952C143.641 26.648 143.673 26.352 143.737 26.064C143.801 25.776 143.905 25.52 144.049 25.296C144.193 25.072 144.385 24.892 144.625 24.756C144.865 24.62 145.157 24.552 145.501 24.552C145.853 24.552 146.153 24.62 146.401 24.756C146.649 24.884 146.849 25.056 147.001 25.272C147.161 25.488 147.277 25.74 147.349 26.028C147.421 26.308 147.457 26.6 147.457 26.904C147.457 27.192 147.421 27.476 147.349 27.756C147.285 28.036 147.177 28.288 147.025 28.512C146.873 28.728 146.677 28.904 146.437 29.04C146.197 29.176 145.905 29.244 145.561 29.244C145.233 29.244 144.945 29.18 144.697 29.052C144.457 28.924 144.257 28.752 144.097 28.536C143.945 28.32 143.829 28.076 143.749 27.804C143.677 27.524 143.641 27.24 143.641 26.952ZM148.441 30V21.432H147.421V24.624H147.397C147.285 24.44 147.145 24.288 146.977 24.168C146.817 24.04 146.645 23.94 146.461 23.868C146.277 23.788 146.093 23.732 145.909 23.7C145.725 23.668 145.553 23.652 145.393 23.652C144.921 23.652 144.505 23.74 144.145 23.916C143.793 24.084 143.497 24.316 143.257 24.612C143.025 24.9 142.849 25.24 142.729 25.632C142.617 26.024 142.561 26.44 142.561 26.88C142.561 27.32 142.621 27.736 142.741 28.128C142.861 28.52 143.037 28.864 143.269 29.16C143.509 29.456 143.805 29.692 144.157 29.868C144.517 30.044 144.937 30.132 145.417 30.132C145.849 30.132 146.245 30.056 146.605 29.904C146.965 29.752 147.229 29.504 147.397 29.16H147.421V30H148.441Z" fill="#2D2D2D"/>
<path d="M174.96 24.012H176.1C176.036 23.556 175.9 23.156 175.692 22.812C175.484 22.46 175.224 22.168 174.912 21.936C174.6 21.704 174.244 21.528 173.844 21.408C173.444 21.288 173.02 21.228 172.572 21.228C171.916 21.228 171.332 21.348 170.82 21.588C170.316 21.82 169.892 22.14 169.548 22.548C169.212 22.956 168.956 23.436 168.78 23.988C168.604 24.532 168.516 25.116 168.516 25.74C168.516 26.364 168.596 26.948 168.756 27.492C168.924 28.036 169.172 28.508 169.5 28.908C169.828 29.308 170.24 29.624 170.736 29.856C171.232 30.08 171.812 30.192 172.476 30.192C173.572 30.192 174.436 29.892 175.068 29.292C175.7 28.692 176.072 27.852 176.184 26.772H175.044C175.02 27.124 174.948 27.452 174.828 27.756C174.708 28.06 174.54 28.324 174.324 28.548C174.116 28.764 173.864 28.936 173.568 29.064C173.28 29.184 172.948 29.244 172.572 29.244C172.06 29.244 171.62 29.148 171.252 28.956C170.884 28.764 170.58 28.508 170.34 28.188C170.108 27.86 169.936 27.48 169.824 27.048C169.712 26.608 169.656 26.144 169.656 25.656C169.656 25.208 169.712 24.776 169.824 24.36C169.936 23.944 170.108 23.576 170.34 23.256C170.58 22.928 170.88 22.668 171.24 22.476C171.608 22.284 172.048 22.188 172.56 22.188C173.16 22.188 173.676 22.34 174.108 22.644C174.548 22.948 174.832 23.404 174.96 24.012ZM182.564 30V23.796H181.544V27.3C181.544 27.58 181.504 27.84 181.424 28.08C181.352 28.312 181.24 28.516 181.088 28.692C180.936 28.868 180.744 29.004 180.512 29.1C180.288 29.196 180.02 29.244 179.708 29.244C179.316 29.244 179.008 29.132 178.784 28.908C178.56 28.684 178.448 28.38 178.448 27.996V23.796H177.428V27.876C177.428 28.212 177.46 28.52 177.524 28.8C177.596 29.072 177.716 29.308 177.884 29.508C178.052 29.708 178.272 29.864 178.544 29.976C178.816 30.08 179.156 30.132 179.564 30.132C180.02 30.132 180.416 30.044 180.752 29.868C181.088 29.684 181.364 29.4 181.58 29.016H181.604V30H182.564ZM184.72 28.044H183.7C183.716 28.428 183.796 28.756 183.94 29.028C184.084 29.292 184.276 29.508 184.516 29.676C184.756 29.836 185.032 29.952 185.344 30.024C185.656 30.096 185.984 30.132 186.328 30.132C186.64 30.132 186.952 30.1 187.264 30.036C187.584 29.98 187.868 29.876 188.116 29.724C188.372 29.572 188.576 29.372 188.728 29.124C188.888 28.876 188.968 28.564 188.968 28.188C188.968 27.892 188.908 27.644 188.788 27.444C188.676 27.244 188.524 27.08 188.332 26.952C188.148 26.816 187.932 26.708 187.684 26.628C187.444 26.548 187.196 26.48 186.94 26.424C186.7 26.368 186.46 26.316 186.22 26.268C185.98 26.212 185.764 26.148 185.572 26.076C185.38 25.996 185.22 25.9 185.092 25.788C184.972 25.668 184.912 25.52 184.912 25.344C184.912 25.184 184.952 25.056 185.032 24.96C185.112 24.856 185.216 24.776 185.344 24.72C185.472 24.656 185.612 24.612 185.764 24.588C185.924 24.564 186.08 24.552 186.232 24.552C186.4 24.552 186.564 24.572 186.724 24.612C186.892 24.644 187.044 24.7 187.18 24.78C187.316 24.86 187.428 24.968 187.516 25.104C187.604 25.232 187.656 25.396 187.672 25.596H188.692C188.668 25.22 188.588 24.908 188.452 24.66C188.316 24.404 188.132 24.204 187.9 24.06C187.676 23.908 187.416 23.804 187.12 23.748C186.824 23.684 186.5 23.652 186.148 23.652C185.876 23.652 185.6 23.688 185.32 23.76C185.048 23.824 184.8 23.928 184.576 24.072C184.36 24.208 184.18 24.388 184.036 24.612C183.9 24.836 183.832 25.104 183.832 25.416C183.832 25.816 183.932 26.128 184.132 26.352C184.332 26.576 184.58 26.752 184.876 26.88C185.18 27 185.508 27.096 185.86 27.168C186.212 27.232 186.536 27.308 186.832 27.396C187.136 27.476 187.388 27.584 187.588 27.72C187.788 27.856 187.888 28.056 187.888 28.32C187.888 28.512 187.84 28.672 187.744 28.8C187.648 28.92 187.524 29.012 187.372 29.076C187.228 29.14 187.068 29.184 186.892 29.208C186.716 29.232 186.548 29.244 186.388 29.244C186.18 29.244 185.976 29.224 185.776 29.184C185.584 29.144 185.408 29.08 185.248 28.992C185.096 28.896 184.972 28.772 184.876 28.62C184.78 28.46 184.728 28.268 184.72 28.044ZM191.512 23.796V21.936H190.492V23.796H189.436V24.696H190.492V28.644C190.492 28.932 190.52 29.164 190.576 29.34C190.632 29.516 190.716 29.652 190.828 29.748C190.948 29.844 191.1 29.912 191.284 29.952C191.476 29.984 191.704 30 191.968 30H192.748V29.1H192.28C192.12 29.1 191.988 29.096 191.884 29.088C191.788 29.072 191.712 29.044 191.656 29.004C191.6 28.964 191.56 28.908 191.536 28.836C191.52 28.764 191.512 28.668 191.512 28.548V24.696H192.748V23.796H191.512ZM194.625 26.904C194.625 26.528 194.673 26.196 194.769 25.908C194.873 25.612 195.013 25.364 195.189 25.164C195.365 24.964 195.569 24.812 195.801 24.708C196.041 24.604 196.293 24.552 196.557 24.552C196.821 24.552 197.069 24.604 197.301 24.708C197.541 24.812 197.749 24.964 197.925 25.164C198.101 25.364 198.237 25.612 198.333 25.908C198.437 26.196 198.489 26.528 198.489 26.904C198.489 27.28 198.437 27.616 198.333 27.912C198.237 28.2 198.101 28.444 197.925 28.644C197.749 28.836 197.541 28.984 197.301 29.088C197.069 29.192 196.821 29.244 196.557 29.244C196.293 29.244 196.041 29.192 195.801 29.088C195.569 28.984 195.365 28.836 195.189 28.644C195.013 28.444 194.873 28.2 194.769 27.912C194.673 27.616 194.625 27.28 194.625 26.904ZM193.545 26.904C193.545 27.36 193.609 27.784 193.737 28.176C193.865 28.568 194.057 28.912 194.313 29.208C194.569 29.496 194.885 29.724 195.261 29.892C195.637 30.052 196.069 30.132 196.557 30.132C197.053 30.132 197.485 30.052 197.853 29.892C198.229 29.724 198.545 29.496 198.801 29.208C199.057 28.912 199.249 28.568 199.377 28.176C199.505 27.784 199.569 27.36 199.569 26.904C199.569 26.448 199.505 26.024 199.377 25.632C199.249 25.232 199.057 24.888 198.801 24.6C198.545 24.304 198.229 24.072 197.853 23.904C197.485 23.736 197.053 23.652 196.557 23.652C196.069 23.652 195.637 23.736 195.261 23.904C194.885 24.072 194.569 24.304 194.313 24.6C194.057 24.888 193.865 25.232 193.737 25.632C193.609 26.024 193.545 26.448 193.545 26.904ZM200.772 23.796V30H201.792V26.136C201.792 26.016 201.82 25.868 201.876 25.692C201.94 25.508 202.036 25.332 202.164 25.164C202.3 24.996 202.472 24.852 202.68 24.732C202.896 24.612 203.152 24.552 203.448 24.552C203.68 24.552 203.868 24.588 204.012 24.66C204.164 24.724 204.284 24.82 204.372 24.948C204.46 25.068 204.52 25.212 204.552 25.38C204.592 25.548 204.612 25.732 204.612 25.932V30H205.632V26.136C205.632 25.656 205.776 25.272 206.064 24.984C206.352 24.696 206.748 24.552 207.252 24.552C207.5 24.552 207.7 24.588 207.852 24.66C208.012 24.732 208.136 24.832 208.224 24.96C208.312 25.08 208.372 25.224 208.404 25.392C208.436 25.56 208.452 25.74 208.452 25.932V30H209.472V25.452C209.472 25.132 209.42 24.86 209.316 24.636C209.22 24.404 209.08 24.216 208.896 24.072C208.72 23.928 208.504 23.824 208.248 23.76C208 23.688 207.72 23.652 207.408 23.652C207 23.652 206.624 23.744 206.28 23.928C205.944 24.112 205.672 24.372 205.464 24.708C205.336 24.324 205.116 24.052 204.804 23.892C204.492 23.732 204.144 23.652 203.76 23.652C202.888 23.652 202.22 24.004 201.756 24.708H201.732V23.796H200.772ZM215.31 26.304H211.746C211.762 26.064 211.814 25.84 211.902 25.632C211.99 25.416 212.11 25.228 212.262 25.068C212.414 24.908 212.594 24.784 212.802 24.696C213.018 24.6 213.258 24.552 213.522 24.552C213.778 24.552 214.01 24.6 214.218 24.696C214.434 24.784 214.618 24.908 214.77 25.068C214.93 25.22 215.054 25.404 215.142 25.62C215.238 25.836 215.294 26.064 215.31 26.304ZM216.294 28.032H215.286C215.198 28.44 215.014 28.744 214.734 28.944C214.462 29.144 214.11 29.244 213.678 29.244C213.342 29.244 213.05 29.188 212.802 29.076C212.554 28.964 212.35 28.816 212.19 28.632C212.03 28.44 211.914 28.224 211.842 27.984C211.77 27.736 211.738 27.476 211.746 27.204H216.39C216.406 26.828 216.37 26.432 216.282 26.016C216.202 25.6 216.05 25.216 215.826 24.864C215.61 24.512 215.318 24.224 214.95 24C214.59 23.768 214.134 23.652 213.582 23.652C213.158 23.652 212.766 23.732 212.406 23.892C212.054 24.052 211.746 24.276 211.482 24.564C211.226 24.852 211.026 25.192 210.882 25.584C210.738 25.976 210.666 26.408 210.666 26.88C210.682 27.352 210.75 27.788 210.87 28.188C210.998 28.588 211.186 28.932 211.434 29.22C211.682 29.508 211.986 29.732 212.346 29.892C212.714 30.052 213.146 30.132 213.642 30.132C214.346 30.132 214.93 29.956 215.394 29.604C215.858 29.252 216.158 28.728 216.294 28.032ZM217.412 23.796V30H218.432V27.24C218.432 26.84 218.472 26.488 218.552 26.184C218.632 25.872 218.76 25.608 218.936 25.392C219.112 25.176 219.344 25.012 219.632 24.9C219.92 24.788 220.268 24.732 220.676 24.732V23.652C220.124 23.636 219.668 23.748 219.308 23.988C218.948 24.228 218.644 24.6 218.396 25.104H218.372V23.796H217.412ZM229.908 23.94H230.988C230.972 23.468 230.88 23.064 230.712 22.728C230.552 22.384 230.328 22.1 230.04 21.876C229.76 21.652 229.432 21.488 229.056 21.384C228.68 21.28 228.272 21.228 227.832 21.228C227.44 21.228 227.056 21.28 226.68 21.384C226.312 21.48 225.98 21.632 225.684 21.84C225.396 22.04 225.164 22.3 224.988 22.62C224.812 22.932 224.724 23.304 224.724 23.736C224.724 24.128 224.8 24.456 224.952 24.72C225.112 24.976 225.32 25.188 225.576 25.356C225.84 25.516 226.136 25.648 226.464 25.752C226.792 25.848 227.124 25.936 227.46 26.016C227.804 26.088 228.14 26.16 228.468 26.232C228.796 26.304 229.088 26.4 229.344 26.52C229.608 26.632 229.816 26.78 229.968 26.964C230.128 27.148 230.208 27.388 230.208 27.684C230.208 27.996 230.144 28.252 230.016 28.452C229.888 28.652 229.72 28.812 229.512 28.932C229.304 29.044 229.068 29.124 228.804 29.172C228.548 29.22 228.292 29.244 228.036 29.244C227.716 29.244 227.404 29.204 227.1 29.124C226.796 29.044 226.528 28.92 226.296 28.752C226.072 28.584 225.888 28.372 225.744 28.116C225.608 27.852 225.54 27.54 225.54 27.18H224.46C224.46 27.7 224.552 28.152 224.736 28.536C224.928 28.912 225.184 29.224 225.504 29.472C225.832 29.712 226.208 29.892 226.632 30.012C227.064 30.132 227.52 30.192 228 30.192C228.392 30.192 228.784 30.144 229.176 30.048C229.576 29.96 229.936 29.816 230.256 29.616C230.576 29.408 230.836 29.144 231.036 28.824C231.244 28.496 231.348 28.104 231.348 27.648C231.348 27.224 231.268 26.872 231.108 26.592C230.956 26.312 230.748 26.08 230.484 25.896C230.228 25.712 229.936 25.568 229.608 25.464C229.28 25.352 228.944 25.256 228.6 25.176C228.264 25.096 227.932 25.024 227.604 24.96C227.276 24.888 226.98 24.8 226.716 24.696C226.46 24.592 226.252 24.46 226.092 24.3C225.94 24.132 225.864 23.916 225.864 23.652C225.864 23.372 225.916 23.14 226.02 22.956C226.132 22.764 226.276 22.612 226.452 22.5C226.636 22.388 226.844 22.308 227.076 22.26C227.308 22.212 227.544 22.188 227.784 22.188C228.376 22.188 228.86 22.328 229.236 22.608C229.62 22.88 229.844 23.324 229.908 23.94ZM236.873 26.304H233.309C233.325 26.064 233.377 25.84 233.465 25.632C233.553 25.416 233.673 25.228 233.825 25.068C233.977 24.908 234.157 24.784 234.365 24.696C234.581 24.6 234.821 24.552 235.085 24.552C235.341 24.552 235.573 24.6 235.781 24.696C235.997 24.784 236.181 24.908 236.333 25.068C236.493 25.22 236.617 25.404 236.705 25.62C236.801 25.836 236.857 26.064 236.873 26.304ZM237.857 28.032H236.849C236.761 28.44 236.577 28.744 236.297 28.944C236.025 29.144 235.673 29.244 235.241 29.244C234.905 29.244 234.613 29.188 234.365 29.076C234.117 28.964 233.913 28.816 233.753 28.632C233.593 28.44 233.477 28.224 233.405 27.984C233.333 27.736 233.301 27.476 233.309 27.204H237.953C237.969 26.828 237.933 26.432 237.845 26.016C237.765 25.6 237.613 25.216 237.389 24.864C237.173 24.512 236.881 24.224 236.513 24C236.153 23.768 235.697 23.652 235.145 23.652C234.721 23.652 234.329 23.732 233.969 23.892C233.617 24.052 233.309 24.276 233.045 24.564C232.789 24.852 232.589 25.192 232.445 25.584C232.301 25.976 232.229 26.408 232.229 26.88C232.245 27.352 232.313 27.788 232.433 28.188C232.561 28.588 232.749 28.932 232.997 29.22C233.245 29.508 233.549 29.732 233.909 29.892C234.277 30.052 234.709 30.132 235.205 30.132C235.909 30.132 236.493 29.956 236.957 29.604C237.421 29.252 237.721 28.728 237.857 28.032ZM238.974 23.796V30H239.994V27.24C239.994 26.84 240.034 26.488 240.114 26.184C240.194 25.872 240.322 25.608 240.498 25.392C240.674 25.176 240.906 25.012 241.194 24.9C241.482 24.788 241.83 24.732 242.238 24.732V23.652C241.686 23.636 241.23 23.748 240.87 23.988C240.51 24.228 240.206 24.6 239.958 25.104H239.934V23.796H238.974ZM245.802 30L248.07 23.796H247.002L245.31 28.968H245.286L243.546 23.796H242.406L244.71 30H245.802ZM250.086 22.68V21.432H249.066V22.68H250.086ZM249.066 23.796V30H250.086V23.796H249.066ZM255.878 25.788H256.934C256.894 25.42 256.798 25.104 256.646 24.84C256.494 24.568 256.298 24.344 256.058 24.168C255.826 23.992 255.554 23.864 255.242 23.784C254.938 23.696 254.61 23.652 254.258 23.652C253.77 23.652 253.342 23.74 252.974 23.916C252.606 24.084 252.298 24.32 252.05 24.624C251.81 24.92 251.63 25.272 251.51 25.68C251.39 26.08 251.33 26.512 251.33 26.976C251.33 27.44 251.39 27.868 251.51 28.26C251.638 28.644 251.822 28.976 252.062 29.256C252.31 29.536 252.614 29.752 252.974 29.904C253.342 30.056 253.762 30.132 254.234 30.132C255.026 30.132 255.65 29.924 256.106 29.508C256.57 29.092 256.858 28.5 256.97 27.732H255.926C255.862 28.212 255.686 28.584 255.398 28.848C255.118 29.112 254.726 29.244 254.222 29.244C253.902 29.244 253.626 29.18 253.394 29.052C253.162 28.924 252.974 28.756 252.83 28.548C252.686 28.332 252.578 28.088 252.506 27.816C252.442 27.544 252.41 27.264 252.41 26.976C252.41 26.664 252.442 26.364 252.506 26.076C252.57 25.78 252.674 25.52 252.818 25.296C252.97 25.072 253.17 24.892 253.418 24.756C253.666 24.62 253.974 24.552 254.342 24.552C254.774 24.552 255.118 24.66 255.374 24.876C255.63 25.092 255.798 25.396 255.878 25.788ZM262.42 26.304H258.856C258.872 26.064 258.924 25.84 259.012 25.632C259.1 25.416 259.22 25.228 259.372 25.068C259.524 24.908 259.704 24.784 259.912 24.696C260.128 24.6 260.368 24.552 260.632 24.552C260.888 24.552 261.12 24.6 261.328 24.696C261.544 24.784 261.728 24.908 261.88 25.068C262.04 25.22 262.164 25.404 262.252 25.62C262.348 25.836 262.404 26.064 262.42 26.304ZM263.404 28.032H262.396C262.308 28.44 262.124 28.744 261.844 28.944C261.572 29.144 261.22 29.244 260.788 29.244C260.452 29.244 260.16 29.188 259.912 29.076C259.664 28.964 259.46 28.816 259.3 28.632C259.14 28.44 259.024 28.224 258.952 27.984C258.88 27.736 258.848 27.476 258.856 27.204H263.5C263.516 26.828 263.48 26.432 263.392 26.016C263.312 25.6 263.16 25.216 262.936 24.864C262.72 24.512 262.428 24.224 262.06 24C261.7 23.768 261.244 23.652 260.692 23.652C260.268 23.652 259.876 23.732 259.516 23.892C259.164 24.052 258.856 24.276 258.592 24.564C258.336 24.852 258.136 25.192 257.992 25.584C257.848 25.976 257.776 26.408 257.776 26.88C257.792 27.352 257.86 27.788 257.98 28.188C258.108 28.588 258.296 28.932 258.544 29.22C258.792 29.508 259.096 29.732 259.456 29.892C259.824 30.052 260.256 30.132 260.752 30.132C261.456 30.132 262.04 29.956 262.504 29.604C262.968 29.252 263.268 28.728 263.404 28.032ZM268.065 21.432V30H269.205V26.34H271.989C272.269 26.34 272.493 26.384 272.661 26.472C272.829 26.552 272.965 26.664 273.069 26.808C273.173 26.944 273.249 27.108 273.297 27.3C273.345 27.484 273.385 27.68 273.417 27.888C273.457 28.096 273.481 28.308 273.489 28.524C273.497 28.74 273.505 28.944 273.513 29.136C273.521 29.32 273.537 29.488 273.561 29.64C273.593 29.792 273.649 29.912 273.729 30H275.001C274.881 29.856 274.789 29.692 274.725 29.508C274.669 29.316 274.625 29.116 274.593 28.908C274.561 28.7 274.541 28.488 274.533 28.272C274.525 28.056 274.513 27.844 274.497 27.636C274.473 27.428 274.437 27.228 274.389 27.036C274.349 26.844 274.281 26.672 274.185 26.52C274.097 26.36 273.973 26.224 273.813 26.112C273.661 26 273.461 25.92 273.213 25.872V25.848C273.733 25.704 274.109 25.436 274.341 25.044C274.581 24.652 274.701 24.196 274.701 23.676C274.701 22.98 274.469 22.432 274.005 22.032C273.549 21.632 272.913 21.432 272.097 21.432H268.065ZM271.581 25.38H269.205V22.392H272.037C272.573 22.392 272.961 22.528 273.201 22.8C273.441 23.072 273.561 23.424 273.561 23.856C273.561 24.168 273.505 24.424 273.393 24.624C273.289 24.816 273.145 24.972 272.961 25.092C272.785 25.204 272.577 25.28 272.337 25.32C272.097 25.36 271.845 25.38 271.581 25.38ZM280.42 26.304H276.856C276.872 26.064 276.924 25.84 277.012 25.632C277.1 25.416 277.22 25.228 277.372 25.068C277.524 24.908 277.704 24.784 277.912 24.696C278.128 24.6 278.368 24.552 278.632 24.552C278.888 24.552 279.12 24.6 279.328 24.696C279.544 24.784 279.728 24.908 279.88 25.068C280.04 25.22 280.164 25.404 280.252 25.62C280.348 25.836 280.404 26.064 280.42 26.304ZM281.404 28.032H280.396C280.308 28.44 280.124 28.744 279.844 28.944C279.572 29.144 279.22 29.244 278.788 29.244C278.452 29.244 278.16 29.188 277.912 29.076C277.664 28.964 277.46 28.816 277.3 28.632C277.14 28.44 277.024 28.224 276.952 27.984C276.88 27.736 276.848 27.476 276.856 27.204H281.5C281.516 26.828 281.48 26.432 281.392 26.016C281.312 25.6 281.16 25.216 280.936 24.864C280.72 24.512 280.428 24.224 280.06 24C279.7 23.768 279.244 23.652 278.692 23.652C278.268 23.652 277.876 23.732 277.516 23.892C277.164 24.052 276.856 24.276 276.592 24.564C276.336 24.852 276.136 25.192 275.992 25.584C275.848 25.976 275.776 26.408 275.776 26.88C275.792 27.352 275.86 27.788 275.98 28.188C276.108 28.588 276.296 28.932 276.544 29.22C276.792 29.508 277.096 29.732 277.456 29.892C277.824 30.052 278.256 30.132 278.752 30.132C279.456 30.132 280.04 29.956 280.504 29.604C280.968 29.252 281.268 28.728 281.404 28.032ZM282.593 23.796V32.364H283.613V29.172H283.637C283.749 29.356 283.885 29.512 284.045 29.64C284.213 29.76 284.389 29.856 284.573 29.928C284.757 30 284.941 30.052 285.125 30.084C285.317 30.116 285.489 30.132 285.641 30.132C286.113 30.132 286.525 30.048 286.877 29.88C287.237 29.712 287.533 29.484 287.765 29.196C288.005 28.9 288.181 28.556 288.293 28.164C288.413 27.772 288.473 27.356 288.473 26.916C288.473 26.476 288.413 26.06 288.293 25.668C288.173 25.276 287.993 24.932 287.753 24.636C287.521 24.332 287.225 24.092 286.865 23.916C286.513 23.74 286.097 23.652 285.617 23.652C285.185 23.652 284.789 23.732 284.429 23.892C284.069 24.044 283.805 24.292 283.637 24.636H283.613V23.796H282.593ZM287.393 26.844C287.393 27.148 287.361 27.444 287.297 27.732C287.233 28.02 287.129 28.276 286.985 28.5C286.841 28.724 286.649 28.904 286.409 29.04C286.177 29.176 285.885 29.244 285.533 29.244C285.181 29.244 284.881 29.18 284.633 29.052C284.385 28.916 284.181 28.74 284.021 28.524C283.869 28.308 283.757 28.06 283.685 27.78C283.613 27.492 283.577 27.196 283.577 26.892C283.577 26.604 283.609 26.32 283.673 26.04C283.745 25.76 283.857 25.512 284.009 25.296C284.161 25.072 284.357 24.892 284.597 24.756C284.837 24.62 285.129 24.552 285.473 24.552C285.801 24.552 286.085 24.616 286.325 24.744C286.573 24.872 286.773 25.044 286.925 25.26C287.085 25.476 287.201 25.724 287.273 26.004C287.353 26.276 287.393 26.556 287.393 26.844ZM289.634 23.796V30H290.654V27.24C290.654 26.84 290.694 26.488 290.774 26.184C290.854 25.872 290.982 25.608 291.158 25.392C291.334 25.176 291.566 25.012 291.854 24.9C292.142 24.788 292.49 24.732 292.898 24.732V23.652C292.346 23.636 291.89 23.748 291.53 23.988C291.17 24.228 290.866 24.6 290.618 25.104H290.594V23.796H289.634ZM297.764 26.304H294.2C294.216 26.064 294.268 25.84 294.356 25.632C294.444 25.416 294.564 25.228 294.716 25.068C294.868 24.908 295.048 24.784 295.256 24.696C295.472 24.6 295.712 24.552 295.976 24.552C296.232 24.552 296.464 24.6 296.672 24.696C296.888 24.784 297.072 24.908 297.224 25.068C297.384 25.22 297.508 25.404 297.596 25.62C297.692 25.836 297.748 26.064 297.764 26.304ZM298.747 28.032H297.74C297.652 28.44 297.468 28.744 297.188 28.944C296.916 29.144 296.564 29.244 296.132 29.244C295.796 29.244 295.504 29.188 295.256 29.076C295.008 28.964 294.804 28.816 294.644 28.632C294.484 28.44 294.368 28.224 294.296 27.984C294.224 27.736 294.192 27.476 294.2 27.204H298.844C298.86 26.828 298.824 26.432 298.736 26.016C298.656 25.6 298.504 25.216 298.28 24.864C298.064 24.512 297.772 24.224 297.404 24C297.044 23.768 296.588 23.652 296.036 23.652C295.612 23.652 295.22 23.732 294.86 23.892C294.508 24.052 294.2 24.276 293.936 24.564C293.68 24.852 293.48 25.192 293.336 25.584C293.192 25.976 293.12 26.408 293.12 26.88C293.136 27.352 293.204 27.788 293.324 28.188C293.452 28.588 293.64 28.932 293.888 29.22C294.136 29.508 294.44 29.732 294.8 29.892C295.168 30.052 295.6 30.132 296.096 30.132C296.8 30.132 297.384 29.956 297.848 29.604C298.312 29.252 298.612 28.728 298.747 28.032ZM300.525 28.044H299.505C299.521 28.428 299.601 28.756 299.745 29.028C299.889 29.292 300.081 29.508 300.321 29.676C300.561 29.836 300.837 29.952 301.149 30.024C301.461 30.096 301.789 30.132 302.133 30.132C302.445 30.132 302.757 30.1 303.069 30.036C303.389 29.98 303.673 29.876 303.921 29.724C304.177 29.572 304.381 29.372 304.533 29.124C304.693 28.876 304.773 28.564 304.773 28.188C304.773 27.892 304.713 27.644 304.593 27.444C304.481 27.244 304.329 27.08 304.137 26.952C303.953 26.816 303.737 26.708 303.489 26.628C303.249 26.548 303.001 26.48 302.745 26.424C302.505 26.368 302.265 26.316 302.025 26.268C301.785 26.212 301.569 26.148 301.377 26.076C301.185 25.996 301.025 25.9 300.897 25.788C300.777 25.668 300.717 25.52 300.717 25.344C300.717 25.184 300.757 25.056 300.837 24.96C300.917 24.856 301.021 24.776 301.149 24.72C301.277 24.656 301.417 24.612 301.569 24.588C301.729 24.564 301.885 24.552 302.037 24.552C302.205 24.552 302.369 24.572 302.529 24.612C302.697 24.644 302.849 24.7 302.985 24.78C303.121 24.86 303.233 24.968 303.321 25.104C303.409 25.232 303.461 25.396 303.477 25.596H304.497C304.473 25.22 304.393 24.908 304.257 24.66C304.121 24.404 303.937 24.204 303.705 24.06C303.481 23.908 303.221 23.804 302.925 23.748C302.629 23.684 302.305 23.652 301.953 23.652C301.681 23.652 301.405 23.688 301.125 23.76C300.853 23.824 300.605 23.928 300.381 24.072C300.165 24.208 299.985 24.388 299.841 24.612C299.705 24.836 299.637 25.104 299.637 25.416C299.637 25.816 299.737 26.128 299.937 26.352C300.137 26.576 300.385 26.752 300.681 26.88C300.985 27 301.313 27.096 301.665 27.168C302.017 27.232 302.341 27.308 302.637 27.396C302.941 27.476 303.193 27.584 303.393 27.72C303.593 27.856 303.693 28.056 303.693 28.32C303.693 28.512 303.645 28.672 303.549 28.8C303.453 28.92 303.329 29.012 303.177 29.076C303.033 29.14 302.873 29.184 302.697 29.208C302.521 29.232 302.353 29.244 302.193 29.244C301.985 29.244 301.781 29.224 301.581 29.184C301.389 29.144 301.213 29.08 301.053 28.992C300.901 28.896 300.777 28.772 300.681 28.62C300.585 28.46 300.533 28.268 300.525 28.044ZM310.209 26.304H306.645C306.661 26.064 306.713 25.84 306.801 25.632C306.889 25.416 307.009 25.228 307.161 25.068C307.313 24.908 307.493 24.784 307.701 24.696C307.917 24.6 308.157 24.552 308.421 24.552C308.677 24.552 308.909 24.6 309.117 24.696C309.333 24.784 309.517 24.908 309.669 25.068C309.829 25.22 309.953 25.404 310.041 25.62C310.137 25.836 310.193 26.064 310.209 26.304ZM311.193 28.032H310.185C310.097 28.44 309.913 28.744 309.633 28.944C309.361 29.144 309.009 29.244 308.577 29.244C308.241 29.244 307.949 29.188 307.701 29.076C307.453 28.964 307.249 28.816 307.089 28.632C306.929 28.44 306.813 28.224 306.741 27.984C306.669 27.736 306.637 27.476 306.645 27.204H311.289C311.305 26.828 311.269 26.432 311.181 26.016C311.101 25.6 310.949 25.216 310.725 24.864C310.509 24.512 310.217 24.224 309.849 24C309.489 23.768 309.033 23.652 308.481 23.652C308.057 23.652 307.665 23.732 307.305 23.892C306.953 24.052 306.645 24.276 306.381 24.564C306.125 24.852 305.925 25.192 305.781 25.584C305.637 25.976 305.565 26.408 305.565 26.88C305.581 27.352 305.649 27.788 305.769 28.188C305.897 28.588 306.085 28.932 306.333 29.22C306.581 29.508 306.885 29.732 307.245 29.892C307.613 30.052 308.045 30.132 308.541 30.132C309.245 30.132 309.829 29.956 310.293 29.604C310.757 29.252 311.057 28.728 311.193 28.032ZM312.346 23.796V30H313.366V26.496C313.366 26.216 313.402 25.96 313.474 25.728C313.554 25.488 313.67 25.28 313.822 25.104C313.974 24.928 314.162 24.792 314.386 24.696C314.618 24.6 314.89 24.552 315.202 24.552C315.594 24.552 315.902 24.664 316.126 24.888C316.35 25.112 316.462 25.416 316.462 25.8V30H317.482V25.92C317.482 25.584 317.446 25.28 317.374 25.008C317.31 24.728 317.194 24.488 317.026 24.288C316.858 24.088 316.638 23.932 316.366 23.82C316.094 23.708 315.754 23.652 315.346 23.652C314.426 23.652 313.754 24.028 313.33 24.78H313.306V23.796H312.346ZM320.43 23.796V21.936H319.41V23.796H318.354V24.696H319.41V28.644C319.41 28.932 319.438 29.164 319.494 29.34C319.55 29.516 319.634 29.652 319.746 29.748C319.866 29.844 320.018 29.912 320.202 29.952C320.394 29.984 320.622 30 320.886 30H321.666V29.1H321.198C321.038 29.1 320.906 29.096 320.802 29.088C320.706 29.072 320.63 29.044 320.574 29.004C320.518 28.964 320.478 28.908 320.454 28.836C320.438 28.764 320.43 28.668 320.43 28.548V24.696H321.666V23.796H320.43ZM328.295 29.976C328.119 30.08 327.875 30.132 327.563 30.132C327.299 30.132 327.087 30.06 326.927 29.916C326.775 29.764 326.699 29.52 326.699 29.184C326.419 29.52 326.091 29.764 325.715 29.916C325.347 30.06 324.947 30.132 324.515 30.132C324.235 30.132 323.967 30.1 323.711 30.036C323.463 29.972 323.247 29.872 323.063 29.736C322.879 29.6 322.731 29.424 322.619 29.208C322.515 28.984 322.463 28.716 322.463 28.404C322.463 28.052 322.523 27.764 322.643 27.54C322.763 27.316 322.919 27.136 323.111 27C323.311 26.856 323.535 26.748 323.783 26.676C324.039 26.604 324.299 26.544 324.563 26.496C324.843 26.44 325.107 26.4 325.355 26.376C325.611 26.344 325.835 26.304 326.027 26.256C326.219 26.2 326.371 26.124 326.483 26.028C326.595 25.924 326.651 25.776 326.651 25.584C326.651 25.36 326.607 25.18 326.519 25.044C326.439 24.908 326.331 24.804 326.195 24.732C326.067 24.66 325.919 24.612 325.751 24.588C325.591 24.564 325.431 24.552 325.271 24.552C324.839 24.552 324.479 24.636 324.191 24.804C323.903 24.964 323.747 25.272 323.723 25.728H322.703C322.719 25.344 322.799 25.02 322.943 24.756C323.087 24.492 323.279 24.28 323.519 24.12C323.759 23.952 324.031 23.832 324.335 23.76C324.647 23.688 324.979 23.652 325.331 23.652C325.611 23.652 325.887 23.672 326.159 23.712C326.439 23.752 326.691 23.836 326.915 23.964C327.139 24.084 327.319 24.256 327.455 24.48C327.591 24.704 327.659 24.996 327.659 25.356V28.548C327.659 28.788 327.671 28.964 327.695 29.076C327.727 29.188 327.823 29.244 327.983 29.244C328.071 29.244 328.175 29.224 328.295 29.184V29.976ZM326.639 26.796C326.511 26.892 326.343 26.964 326.135 27.012C325.927 27.052 325.707 27.088 325.475 27.12C325.251 27.144 325.023 27.176 324.791 27.216C324.559 27.248 324.351 27.304 324.167 27.384C323.983 27.464 323.831 27.58 323.711 27.732C323.599 27.876 323.543 28.076 323.543 28.332C323.543 28.5 323.575 28.644 323.639 28.764C323.711 28.876 323.799 28.968 323.903 29.04C324.015 29.112 324.143 29.164 324.287 29.196C324.431 29.228 324.583 29.244 324.743 29.244C325.079 29.244 325.367 29.2 325.607 29.112C325.847 29.016 326.043 28.9 326.195 28.764C326.347 28.62 326.459 28.468 326.531 28.308C326.603 28.14 326.639 27.984 326.639 27.84V26.796ZM330.661 23.796V21.936H329.641V23.796H328.585V24.696H329.641V28.644C329.641 28.932 329.669 29.164 329.725 29.34C329.781 29.516 329.865 29.652 329.977 29.748C330.097 29.844 330.249 29.912 330.433 29.952C330.625 29.984 330.853 30 331.117 30H331.897V29.1H331.429C331.269 29.1 331.137 29.096 331.033 29.088C330.937 29.072 330.861 29.044 330.805 29.004C330.749 28.964 330.709 28.908 330.685 28.836C330.669 28.764 330.661 28.668 330.661 28.548V24.696H331.897V23.796H330.661ZM334.11 22.68V21.432H333.09V22.68H334.11ZM333.09 23.796V30H334.11V23.796H333.09ZM338.486 30L340.754 23.796H339.686L337.994 28.968H337.97L336.23 23.796H335.09L337.394 30H338.486ZM345.998 26.304H342.434C342.45 26.064 342.502 25.84 342.59 25.632C342.678 25.416 342.798 25.228 342.95 25.068C343.102 24.908 343.282 24.784 343.49 24.696C343.706 24.6 343.946 24.552 344.21 24.552C344.466 24.552 344.698 24.6 344.906 24.696C345.122 24.784 345.306 24.908 345.458 25.068C345.618 25.22 345.742 25.404 345.83 25.62C345.926 25.836 345.982 26.064 345.998 26.304ZM346.982 28.032H345.974C345.886 28.44 345.702 28.744 345.422 28.944C345.15 29.144 344.798 29.244 344.366 29.244C344.03 29.244 343.738 29.188 343.49 29.076C343.242 28.964 343.038 28.816 342.878 28.632C342.718 28.44 342.602 28.224 342.53 27.984C342.458 27.736 342.426 27.476 342.434 27.204H347.078C347.094 26.828 347.058 26.432 346.97 26.016C346.89 25.6 346.738 25.216 346.514 24.864C346.298 24.512 346.006 24.224 345.638 24C345.278 23.768 344.822 23.652 344.27 23.652C343.846 23.652 343.454 23.732 343.094 23.892C342.742 24.052 342.434 24.276 342.17 24.564C341.914 24.852 341.714 25.192 341.57 25.584C341.426 25.976 341.354 26.408 341.354 26.88C341.37 27.352 341.438 27.788 341.558 28.188C341.686 28.588 341.874 28.932 342.122 29.22C342.37 29.508 342.674 29.732 343.034 29.892C343.402 30.052 343.834 30.132 344.33 30.132C345.034 30.132 345.618 29.956 346.082 29.604C346.546 29.252 346.846 28.728 346.982 28.032Z" fill="#2D2D2D"/>
<path d="M521.068 25.996V27.196C521.276 27.196 521.492 27.204 521.716 27.22C521.948 27.228 522.16 27.272 522.352 27.352C522.544 27.424 522.7 27.544 522.82 27.712C522.948 27.88 523.012 28.124 523.012 28.444C523.012 28.852 522.88 29.176 522.616 29.416C522.352 29.648 522.028 29.764 521.644 29.764C521.396 29.764 521.18 29.72 520.996 29.632C520.82 29.544 520.672 29.428 520.552 29.284C520.432 29.132 520.34 28.956 520.276 28.756C520.212 28.548 520.176 28.332 520.168 28.108H518.548C518.54 28.596 518.608 29.028 518.752 29.404C518.904 29.78 519.116 30.1 519.388 30.364C519.66 30.62 519.988 30.816 520.372 30.952C520.764 31.088 521.196 31.156 521.668 31.156C522.076 31.156 522.468 31.096 522.844 30.976C523.22 30.856 523.552 30.68 523.84 30.448C524.128 30.216 524.356 29.928 524.524 29.584C524.7 29.24 524.788 28.848 524.788 28.408C524.788 27.928 524.656 27.516 524.392 27.172C524.128 26.828 523.764 26.604 523.3 26.5V26.476C523.692 26.364 523.984 26.152 524.176 25.84C524.376 25.528 524.476 25.168 524.476 24.76C524.476 24.384 524.392 24.052 524.224 23.764C524.056 23.476 523.836 23.232 523.564 23.032C523.3 22.832 523 22.684 522.664 22.588C522.328 22.484 521.992 22.432 521.656 22.432C521.224 22.432 520.832 22.504 520.48 22.648C520.128 22.784 519.824 22.98 519.568 23.236C519.32 23.492 519.124 23.8 518.98 24.16C518.844 24.512 518.768 24.904 518.752 25.336H520.372C520.364 24.904 520.468 24.548 520.684 24.268C520.908 23.98 521.236 23.836 521.668 23.836C521.98 23.836 522.256 23.932 522.496 24.124C522.736 24.316 522.856 24.592 522.856 24.952C522.856 25.192 522.796 25.384 522.676 25.528C522.564 25.672 522.416 25.784 522.232 25.864C522.056 25.936 521.864 25.98 521.656 25.996C521.448 26.012 521.252 26.012 521.068 25.996Z" fill="#2D2D2D"/>
<path d="M542.596 25.716C542.596 25.284 542.652 24.86 542.764 24.444C542.876 24.02 543.052 23.64 543.292 23.304C543.532 22.968 543.84 22.7 544.216 22.5C544.592 22.292 545.04 22.188 545.56 22.188C546.08 22.188 546.528 22.292 546.904 22.5C547.28 22.7 547.588 22.968 547.828 23.304C548.068 23.64 548.244 24.02 548.356 24.444C548.468 24.86 548.524 25.284 548.524 25.716C548.524 26.148 548.468 26.576 548.356 27C548.244 27.416 548.068 27.792 547.828 28.128C547.588 28.464 547.28 28.736 546.904 28.944C546.528 29.144 546.08 29.244 545.56 29.244C545.04 29.244 544.592 29.144 544.216 28.944C543.84 28.736 543.532 28.464 543.292 28.128C543.052 27.792 542.876 27.416 542.764 27C542.652 26.576 542.596 26.148 542.596 25.716ZM541.456 25.716C541.456 26.3 541.54 26.864 541.708 27.408C541.884 27.944 542.144 28.42 542.488 28.836C542.832 29.252 543.26 29.584 543.772 29.832C544.284 30.072 544.88 30.192 545.56 30.192C546.24 30.192 546.836 30.072 547.348 29.832C547.86 29.584 548.288 29.252 548.632 28.836C548.976 28.42 549.232 27.944 549.4 27.408C549.576 26.864 549.664 26.3 549.664 25.716C549.664 25.132 549.576 24.572 549.4 24.036C549.232 23.492 548.976 23.012 548.632 22.596C548.288 22.18 547.86 21.848 547.348 21.6C546.836 21.352 546.24 21.228 545.56 21.228C544.88 21.228 544.284 21.352 543.772 21.6C543.26 21.848 542.832 22.18 542.488 22.596C542.144 23.012 541.884 23.492 541.708 24.036C541.54 24.572 541.456 25.132 541.456 25.716ZM550.885 23.796V30H551.905V26.496C551.905 26.216 551.941 25.96 552.013 25.728C552.093 25.488 552.209 25.28 552.361 25.104C552.513 24.928 552.701 24.792 552.925 24.696C553.157 24.6 553.429 24.552 553.741 24.552C554.133 24.552 554.441 24.664 554.665 24.888C554.889 25.112 555.001 25.416 555.001 25.8V30H556.021V25.92C556.021 25.584 555.985 25.28 555.913 25.008C555.849 24.728 555.733 24.488 555.565 24.288C555.397 24.088 555.177 23.932 554.905 23.82C554.633 23.708 554.293 23.652 553.885 23.652C552.965 23.652 552.293 24.028 551.869 24.78H551.845V23.796H550.885ZM561.861 26.304H558.297C558.313 26.064 558.365 25.84 558.453 25.632C558.541 25.416 558.661 25.228 558.813 25.068C558.965 24.908 559.145 24.784 559.353 24.696C559.569 24.6 559.809 24.552 560.073 24.552C560.329 24.552 560.561 24.6 560.769 24.696C560.985 24.784 561.169 24.908 561.321 25.068C561.481 25.22 561.605 25.404 561.693 25.62C561.789 25.836 561.845 26.064 561.861 26.304ZM562.845 28.032H561.837C561.749 28.44 561.565 28.744 561.285 28.944C561.013 29.144 560.661 29.244 560.229 29.244C559.893 29.244 559.601 29.188 559.353 29.076C559.105 28.964 558.901 28.816 558.741 28.632C558.581 28.44 558.465 28.224 558.393 27.984C558.321 27.736 558.289 27.476 558.297 27.204H562.941C562.957 26.828 562.921 26.432 562.833 26.016C562.753 25.6 562.601 25.216 562.377 24.864C562.161 24.512 561.869 24.224 561.501 24C561.141 23.768 560.685 23.652 560.133 23.652C559.709 23.652 559.317 23.732 558.957 23.892C558.605 24.052 558.297 24.276 558.033 24.564C557.777 24.852 557.577 25.192 557.433 25.584C557.289 25.976 557.217 26.408 557.217 26.88C557.233 27.352 557.301 27.788 557.421 28.188C557.549 28.588 557.737 28.932 557.985 29.22C558.233 29.508 558.537 29.732 558.897 29.892C559.265 30.052 559.697 30.132 560.193 30.132C560.897 30.132 561.481 29.956 561.945 29.604C562.409 29.252 562.709 28.728 562.845 28.032ZM563.83 26.184V27.144H567.298V26.184H563.83ZM570.775 22.392V30H571.915V22.392H574.771V21.432H567.919V22.392H570.775ZM576.633 22.68V21.432H575.613V22.68H576.633ZM575.613 23.796V30H576.633V23.796H575.613ZM578.213 23.796V30H579.233V26.136C579.233 26.016 579.261 25.868 579.317 25.692C579.381 25.508 579.477 25.332 579.605 25.164C579.741 24.996 579.913 24.852 580.121 24.732C580.337 24.612 580.593 24.552 580.889 24.552C581.121 24.552 581.309 24.588 581.453 24.66C581.605 24.724 581.725 24.82 581.813 24.948C581.901 25.068 581.961 25.212 581.993 25.38C582.033 25.548 582.053 25.732 582.053 25.932V30H583.073V26.136C583.073 25.656 583.217 25.272 583.505 24.984C583.793 24.696 584.189 24.552 584.693 24.552C584.941 24.552 585.141 24.588 585.293 24.66C585.453 24.732 585.577 24.832 585.665 24.96C585.753 25.08 585.813 25.224 585.845 25.392C585.877 25.56 585.893 25.74 585.893 25.932V30H586.913V25.452C586.913 25.132 586.861 24.86 586.757 24.636C586.661 24.404 586.521 24.216 586.337 24.072C586.161 23.928 585.945 23.824 585.689 23.76C585.441 23.688 585.161 23.652 584.849 23.652C584.441 23.652 584.065 23.744 583.721 23.928C583.385 24.112 583.113 24.372 582.905 24.708C582.777 24.324 582.557 24.052 582.245 23.892C581.933 23.732 581.585 23.652 581.201 23.652C580.329 23.652 579.661 24.004 579.197 24.708H579.173V23.796H578.213ZM592.752 26.304H589.188C589.204 26.064 589.256 25.84 589.344 25.632C589.432 25.416 589.552 25.228 589.704 25.068C589.856 24.908 590.036 24.784 590.244 24.696C590.46 24.6 590.7 24.552 590.964 24.552C591.22 24.552 591.452 24.6 591.66 24.696C591.876 24.784 592.06 24.908 592.212 25.068C592.372 25.22 592.496 25.404 592.584 25.62C592.68 25.836 592.736 26.064 592.752 26.304ZM593.736 28.032H592.728C592.64 28.44 592.456 28.744 592.176 28.944C591.904 29.144 591.552 29.244 591.12 29.244C590.784 29.244 590.492 29.188 590.244 29.076C589.996 28.964 589.792 28.816 589.632 28.632C589.472 28.44 589.356 28.224 589.284 27.984C589.212 27.736 589.18 27.476 589.188 27.204H593.832C593.848 26.828 593.812 26.432 593.724 26.016C593.644 25.6 593.492 25.216 593.268 24.864C593.052 24.512 592.76 24.224 592.392 24C592.032 23.768 591.576 23.652 591.024 23.652C590.6 23.652 590.208 23.732 589.848 23.892C589.496 24.052 589.188 24.276 588.924 24.564C588.668 24.852 588.468 25.192 588.324 25.584C588.18 25.976 588.108 26.408 588.108 26.88C588.124 27.352 588.192 27.788 588.312 28.188C588.44 28.588 588.628 28.932 588.876 29.22C589.124 29.508 589.428 29.732 589.788 29.892C590.156 30.052 590.588 30.132 591.084 30.132C591.788 30.132 592.372 29.956 592.836 29.604C593.3 29.252 593.6 28.728 593.736 28.032Z" fill="#2D2D2D"/>
<path d="M631.972 27.384H630.952C631.016 28.224 631.284 28.884 631.756 29.364C632.228 29.836 632.864 30.112 633.664 30.192V31.176H634.324V30.192C634.708 30.16 635.06 30.08 635.38 29.952C635.7 29.824 635.976 29.652 636.208 29.436C636.44 29.212 636.62 28.948 636.748 28.644C636.884 28.34 636.952 27.992 636.952 27.6C636.952 27.232 636.88 26.916 636.736 26.652C636.6 26.388 636.432 26.168 636.232 25.992C636.032 25.816 635.824 25.68 635.608 25.584C635.392 25.48 635.204 25.408 635.044 25.368L634.324 25.176V22.224C635.06 22.36 635.508 22.824 635.668 23.616H636.688C636.528 22.912 636.256 22.36 635.872 21.96C635.488 21.56 634.972 21.32 634.324 21.24V20.436H633.664V21.228C633.32 21.252 632.996 21.328 632.692 21.456C632.396 21.584 632.136 21.76 631.912 21.984C631.696 22.2 631.524 22.46 631.396 22.764C631.268 23.06 631.204 23.388 631.204 23.748C631.204 24.1 631.252 24.4 631.348 24.648C631.444 24.896 631.592 25.108 631.792 25.284C632 25.452 632.256 25.6 632.56 25.728C632.872 25.848 633.24 25.96 633.664 26.064V29.244C633.184 29.164 632.784 28.968 632.464 28.656C632.152 28.344 631.988 27.92 631.972 27.384ZM634.324 29.244V26.232C634.54 26.296 634.744 26.368 634.936 26.448C635.128 26.52 635.292 26.612 635.428 26.724C635.564 26.836 635.672 26.972 635.752 27.132C635.832 27.284 635.872 27.476 635.872 27.708C635.872 27.964 635.832 28.188 635.752 28.38C635.68 28.564 635.572 28.72 635.428 28.848C635.292 28.968 635.128 29.06 634.936 29.124C634.752 29.188 634.548 29.228 634.324 29.244ZM633.664 22.188V24.996C633.464 24.94 633.28 24.876 633.112 24.804C632.944 24.732 632.796 24.648 632.668 24.552C632.548 24.448 632.452 24.324 632.38 24.18C632.316 24.028 632.284 23.848 632.284 23.64C632.284 23.184 632.416 22.84 632.68 22.608C632.952 22.368 633.28 22.228 633.664 22.188ZM642.288 23.664H643.308C643.244 22.96 643.004 22.424 642.588 22.056C642.172 21.68 641.612 21.492 640.908 21.492C640.3 21.492 639.796 21.62 639.396 21.876C638.996 22.132 638.676 22.472 638.436 22.896C638.196 23.32 638.024 23.808 637.92 24.36C637.824 24.904 637.776 25.468 637.776 26.052C637.776 26.5 637.808 26.964 637.872 27.444C637.944 27.924 638.084 28.364 638.292 28.764C638.5 29.164 638.796 29.492 639.18 29.748C639.564 30.004 640.072 30.132 640.704 30.132C641.24 30.132 641.688 30.044 642.048 29.868C642.416 29.684 642.708 29.456 642.924 29.184C643.148 28.904 643.308 28.596 643.404 28.26C643.5 27.924 643.548 27.6 643.548 27.288C643.548 26.896 643.488 26.532 643.368 26.196C643.248 25.86 643.076 25.568 642.852 25.32C642.636 25.072 642.364 24.88 642.036 24.744C641.716 24.6 641.352 24.528 640.944 24.528C640.48 24.528 640.068 24.616 639.708 24.792C639.356 24.968 639.06 25.252 638.82 25.644L638.796 25.62C638.804 25.292 638.836 24.94 638.892 24.564C638.948 24.188 639.048 23.84 639.192 23.52C639.344 23.192 639.552 22.924 639.816 22.716C640.08 22.5 640.428 22.392 640.86 22.392C641.268 22.392 641.596 22.508 641.844 22.74C642.092 22.972 642.24 23.28 642.288 23.664ZM640.752 25.428C641.04 25.428 641.292 25.48 641.508 25.584C641.724 25.688 641.904 25.828 642.048 26.004C642.192 26.172 642.296 26.376 642.36 26.616C642.432 26.848 642.468 27.096 642.468 27.36C642.468 27.608 642.428 27.848 642.348 28.08C642.276 28.304 642.168 28.504 642.024 28.68C641.88 28.856 641.7 28.996 641.484 29.1C641.276 29.196 641.032 29.244 640.752 29.244C640.472 29.244 640.22 29.196 639.996 29.1C639.78 28.996 639.596 28.86 639.444 28.692C639.3 28.524 639.188 28.324 639.108 28.092C639.028 27.86 638.988 27.612 638.988 27.348C638.988 27.084 639.024 26.836 639.096 26.604C639.176 26.364 639.292 26.16 639.444 25.992C639.596 25.816 639.78 25.68 639.996 25.584C640.212 25.48 640.464 25.428 640.752 25.428ZM645.572 25.812C645.572 25.604 645.572 25.376 645.572 25.128C645.58 24.872 645.6 24.62 645.632 24.372C645.672 24.116 645.724 23.868 645.788 23.628C645.86 23.388 645.96 23.18 646.088 23.004C646.224 22.82 646.392 22.672 646.592 22.56C646.792 22.448 647.036 22.392 647.324 22.392C647.612 22.392 647.856 22.448 648.056 22.56C648.256 22.672 648.42 22.82 648.548 23.004C648.684 23.18 648.784 23.388 648.848 23.628C648.92 23.868 648.972 24.116 649.004 24.372C649.044 24.62 649.064 24.872 649.064 25.128C649.072 25.376 649.076 25.604 649.076 25.812C649.076 26.132 649.064 26.492 649.04 26.892C649.024 27.284 648.96 27.656 648.848 28.008C648.744 28.352 648.572 28.644 648.332 28.884C648.092 29.124 647.756 29.244 647.324 29.244C646.892 29.244 646.556 29.124 646.316 28.884C646.076 28.644 645.9 28.352 645.788 28.008C645.684 27.656 645.62 27.284 645.596 26.892C645.58 26.492 645.572 26.132 645.572 25.812ZM644.492 25.824C644.492 26.136 644.5 26.46 644.516 26.796C644.532 27.132 644.572 27.46 644.636 27.78C644.7 28.1 644.792 28.404 644.912 28.692C645.032 28.972 645.196 29.22 645.404 29.436C645.612 29.652 645.872 29.824 646.184 29.952C646.504 30.072 646.884 30.132 647.324 30.132C647.772 30.132 648.152 30.072 648.464 29.952C648.776 29.824 649.036 29.652 649.244 29.436C649.452 29.22 649.616 28.972 649.736 28.692C649.856 28.404 649.948 28.1 650.012 27.78C650.076 27.46 650.116 27.132 650.132 26.796C650.148 26.46 650.156 26.136 650.156 25.824C650.156 25.512 650.148 25.188 650.132 24.852C650.116 24.516 650.076 24.188 650.012 23.868C649.948 23.548 649.856 23.244 649.736 22.956C649.616 22.668 649.452 22.416 649.244 22.2C649.036 21.984 648.772 21.812 648.452 21.684C648.14 21.556 647.764 21.492 647.324 21.492C646.884 21.492 646.504 21.556 646.184 21.684C645.872 21.812 645.612 21.984 645.404 22.2C645.196 22.416 645.032 22.668 644.912 22.956C644.792 23.244 644.7 23.548 644.636 23.868C644.572 24.188 644.532 24.516 644.516 24.852C644.5 25.188 644.492 25.512 644.492 25.824ZM652.24 25.812C652.24 25.604 652.24 25.376 652.24 25.128C652.248 24.872 652.268 24.62 652.3 24.372C652.34 24.116 652.392 23.868 652.456 23.628C652.528 23.388 652.628 23.18 652.756 23.004C652.892 22.82 653.06 22.672 653.26 22.56C653.46 22.448 653.704 22.392 653.992 22.392C654.28 22.392 654.524 22.448 654.724 22.56C654.924 22.672 655.088 22.82 655.216 23.004C655.352 23.18 655.452 23.388 655.516 23.628C655.588 23.868 655.64 24.116 655.672 24.372C655.712 24.62 655.732 24.872 655.732 25.128C655.74 25.376 655.744 25.604 655.744 25.812C655.744 26.132 655.732 26.492 655.708 26.892C655.692 27.284 655.628 27.656 655.516 28.008C655.412 28.352 655.24 28.644 655 28.884C654.76 29.124 654.424 29.244 653.992 29.244C653.56 29.244 653.224 29.124 652.984 28.884C652.744 28.644 652.568 28.352 652.456 28.008C652.352 27.656 652.288 27.284 652.264 26.892C652.248 26.492 652.24 26.132 652.24 25.812ZM651.16 25.824C651.16 26.136 651.168 26.46 651.184 26.796C651.2 27.132 651.24 27.46 651.304 27.78C651.368 28.1 651.46 28.404 651.58 28.692C651.7 28.972 651.864 29.22 652.072 29.436C652.28 29.652 652.54 29.824 652.852 29.952C653.172 30.072 653.552 30.132 653.992 30.132C654.44 30.132 654.82 30.072 655.132 29.952C655.444 29.824 655.704 29.652 655.912 29.436C656.12 29.22 656.284 28.972 656.404 28.692C656.524 28.404 656.616 28.1 656.68 27.78C656.744 27.46 656.784 27.132 656.8 26.796C656.816 26.46 656.824 26.136 656.824 25.824C656.824 25.512 656.816 25.188 656.8 24.852C656.784 24.516 656.744 24.188 656.68 23.868C656.616 23.548 656.524 23.244 656.404 22.956C656.284 22.668 656.12 22.416 655.912 22.2C655.704 21.984 655.44 21.812 655.12 21.684C654.808 21.556 654.432 21.492 653.992 21.492C653.552 21.492 653.172 21.556 652.852 21.684C652.54 21.812 652.28 21.984 652.072 22.2C651.864 22.416 651.7 22.668 651.58 22.956C651.46 23.244 651.368 23.548 651.304 23.868C651.24 24.188 651.2 24.516 651.184 24.852C651.168 25.188 651.16 25.512 651.16 25.824ZM658.32 28.668V30H659.652V28.668H658.32ZM662.248 25.812C662.248 25.604 662.248 25.376 662.248 25.128C662.256 24.872 662.276 24.62 662.308 24.372C662.348 24.116 662.4 23.868 662.464 23.628C662.536 23.388 662.636 23.18 662.764 23.004C662.9 22.82 663.068 22.672 663.268 22.56C663.468 22.448 663.712 22.392 664 22.392C664.288 22.392 664.532 22.448 664.732 22.56C664.932 22.672 665.096 22.82 665.224 23.004C665.36 23.18 665.46 23.388 665.524 23.628C665.596 23.868 665.648 24.116 665.68 24.372C665.72 24.62 665.74 24.872 665.74 25.128C665.748 25.376 665.752 25.604 665.752 25.812C665.752 26.132 665.74 26.492 665.716 26.892C665.7 27.284 665.636 27.656 665.524 28.008C665.42 28.352 665.248 28.644 665.008 28.884C664.768 29.124 664.432 29.244 664 29.244C663.568 29.244 663.232 29.124 662.992 28.884C662.752 28.644 662.576 28.352 662.464 28.008C662.36 27.656 662.296 27.284 662.272 26.892C662.256 26.492 662.248 26.132 662.248 25.812ZM661.168 25.824C661.168 26.136 661.176 26.46 661.192 26.796C661.208 27.132 661.248 27.46 661.312 27.78C661.376 28.1 661.468 28.404 661.588 28.692C661.708 28.972 661.872 29.22 662.08 29.436C662.288 29.652 662.548 29.824 662.86 29.952C663.18 30.072 663.56 30.132 664 30.132C664.448 30.132 664.828 30.072 665.14 29.952C665.452 29.824 665.712 29.652 665.92 29.436C666.128 29.22 666.292 28.972 666.412 28.692C666.532 28.404 666.624 28.1 666.688 27.78C666.752 27.46 666.792 27.132 666.808 26.796C666.824 26.46 666.832 26.136 666.832 25.824C666.832 25.512 666.824 25.188 666.808 24.852C666.792 24.516 666.752 24.188 666.688 23.868C666.624 23.548 666.532 23.244 666.412 22.956C666.292 22.668 666.128 22.416 665.92 22.2C665.712 21.984 665.448 21.812 665.128 21.684C664.816 21.556 664.44 21.492 664 21.492C663.56 21.492 663.18 21.556 662.86 21.684C662.548 21.812 662.288 21.984 662.08 22.2C661.872 22.416 661.708 22.668 661.588 22.956C661.468 23.244 661.376 23.548 661.312 23.868C661.248 24.188 661.208 24.516 661.192 24.852C661.176 25.188 661.168 25.512 661.168 25.824ZM668.916 25.812C668.916 25.604 668.916 25.376 668.916 25.128C668.924 24.872 668.944 24.62 668.976 24.372C669.016 24.116 669.068 23.868 669.132 23.628C669.204 23.388 669.304 23.18 669.432 23.004C669.568 22.82 669.736 22.672 669.936 22.56C670.136 22.448 670.38 22.392 670.668 22.392C670.956 22.392 671.2 22.448 671.4 22.56C671.6 22.672 671.764 22.82 671.892 23.004C672.028 23.18 672.128 23.388 672.192 23.628C672.264 23.868 672.316 24.116 672.348 24.372C672.388 24.62 672.408 24.872 672.408 25.128C672.416 25.376 672.42 25.604 672.42 25.812C672.42 26.132 672.408 26.492 672.384 26.892C672.368 27.284 672.304 27.656 672.192 28.008C672.088 28.352 671.916 28.644 671.676 28.884C671.436 29.124 671.1 29.244 670.668 29.244C670.236 29.244 669.9 29.124 669.66 28.884C669.42 28.644 669.244 28.352 669.132 28.008C669.028 27.656 668.964 27.284 668.94 26.892C668.924 26.492 668.916 26.132 668.916 25.812ZM667.836 25.824C667.836 26.136 667.844 26.46 667.86 26.796C667.876 27.132 667.916 27.46 667.98 27.78C668.044 28.1 668.136 28.404 668.256 28.692C668.376 28.972 668.54 29.22 668.748 29.436C668.956 29.652 669.216 29.824 669.528 29.952C669.848 30.072 670.228 30.132 670.668 30.132C671.116 30.132 671.496 30.072 671.808 29.952C672.12 29.824 672.38 29.652 672.588 29.436C672.796 29.22 672.96 28.972 673.08 28.692C673.2 28.404 673.292 28.1 673.356 27.78C673.42 27.46 673.46 27.132 673.476 26.796C673.492 26.46 673.5 26.136 673.5 25.824C673.5 25.512 673.492 25.188 673.476 24.852C673.46 24.516 673.42 24.188 673.356 23.868C673.292 23.548 673.2 23.244 673.08 22.956C672.96 22.668 672.796 22.416 672.588 22.2C672.38 21.984 672.116 21.812 671.796 21.684C671.484 21.556 671.108 21.492 670.668 21.492C670.228 21.492 669.848 21.556 669.528 21.684C669.216 21.812 668.956 21.984 668.748 22.2C668.54 22.416 668.376 22.668 668.256 22.956C668.136 23.244 668.044 23.548 667.98 23.868C667.916 24.188 667.876 24.516 667.86 24.852C667.844 25.188 667.836 25.512 667.836 25.824Z" fill="#2D2D2D"/>
<rect x="1005" y="9" width="106" height="34" rx="17" fill="white" fill-opacity="0.01"/>
<rect x="1005" y="9" width="106" height="34" rx="17" fill="white"/>
<rect x="1005" y="9" width="106" height="34" rx="17" stroke="#195FF7" stroke-width="2"/>
<path d="M1040.94 26.308V23.896H1043C1043.44 23.896 1043.76 23.992 1043.98 24.184C1044.19 24.368 1044.3 24.668 1044.3 25.084C1044.3 25.516 1044.19 25.828 1043.98 26.02C1043.76 26.212 1043.44 26.308 1043 26.308H1040.94ZM1039.06 22.432V31H1040.94V27.652H1042.82C1043.3 27.652 1043.64 27.756 1043.84 27.964C1044.05 28.172 1044.19 28.5 1044.25 28.948C1044.3 29.292 1044.34 29.652 1044.36 30.028C1044.38 30.404 1044.45 30.728 1044.55 31H1046.44C1046.35 30.88 1046.28 30.736 1046.23 30.568C1046.19 30.392 1046.16 30.208 1046.14 30.016C1046.12 29.824 1046.11 29.636 1046.1 29.452C1046.09 29.268 1046.08 29.108 1046.08 28.972C1046.06 28.756 1046.03 28.54 1045.98 28.324C1045.94 28.108 1045.87 27.912 1045.78 27.736C1045.68 27.552 1045.56 27.396 1045.4 27.268C1045.25 27.132 1045.06 27.032 1044.83 26.968V26.944C1045.31 26.752 1045.65 26.472 1045.86 26.104C1046.08 25.736 1046.18 25.3 1046.18 24.796C1046.18 24.468 1046.12 24.164 1046 23.884C1045.89 23.596 1045.72 23.344 1045.5 23.128C1045.28 22.912 1045.02 22.744 1044.71 22.624C1044.4 22.496 1044.06 22.432 1043.68 22.432H1039.06ZM1051.71 27.232H1048.94C1048.95 27.112 1048.97 26.976 1049.01 26.824C1049.06 26.672 1049.14 26.528 1049.24 26.392C1049.35 26.256 1049.5 26.144 1049.67 26.056C1049.86 25.96 1050.08 25.912 1050.36 25.912C1050.77 25.912 1051.08 26.024 1051.28 26.248C1051.49 26.472 1051.63 26.8 1051.71 27.232ZM1048.94 28.312H1053.42C1053.45 27.832 1053.41 27.372 1053.3 26.932C1053.18 26.492 1053 26.1 1052.74 25.756C1052.5 25.412 1052.18 25.14 1051.78 24.94C1051.39 24.732 1050.93 24.628 1050.4 24.628C1049.93 24.628 1049.5 24.712 1049.11 24.88C1048.72 25.048 1048.39 25.28 1048.11 25.576C1047.83 25.864 1047.62 26.208 1047.46 26.608C1047.31 27.008 1047.24 27.44 1047.24 27.904C1047.24 28.384 1047.31 28.824 1047.45 29.224C1047.6 29.624 1047.82 29.968 1048.09 30.256C1048.36 30.544 1048.69 30.768 1049.08 30.928C1049.48 31.08 1049.92 31.156 1050.4 31.156C1051.11 31.156 1051.71 30.996 1052.2 30.676C1052.7 30.356 1053.07 29.824 1053.31 29.08H1051.81C1051.75 29.272 1051.6 29.456 1051.35 29.632C1051.1 29.8 1050.81 29.884 1050.46 29.884C1049.98 29.884 1049.62 29.76 1049.36 29.512C1049.1 29.264 1048.96 28.864 1048.94 28.312ZM1057.86 31L1059.96 24.796H1058.27L1056.96 29.032H1056.94L1055.63 24.796H1053.84L1055.96 31H1057.86ZM1062.41 23.836V22.432H1060.71V23.836H1062.41ZM1060.71 24.796V31H1062.41V24.796H1060.71ZM1067.93 27.232H1065.16C1065.17 27.112 1065.19 26.976 1065.23 26.824C1065.28 26.672 1065.36 26.528 1065.46 26.392C1065.57 26.256 1065.72 26.144 1065.89 26.056C1066.08 25.96 1066.3 25.912 1066.58 25.912C1066.99 25.912 1067.3 26.024 1067.5 26.248C1067.71 26.472 1067.85 26.8 1067.93 27.232ZM1065.16 28.312H1069.64C1069.67 27.832 1069.63 27.372 1069.52 26.932C1069.4 26.492 1069.22 26.1 1068.96 25.756C1068.72 25.412 1068.4 25.14 1068 24.94C1067.61 24.732 1067.15 24.628 1066.62 24.628C1066.15 24.628 1065.72 24.712 1065.33 24.88C1064.94 25.048 1064.61 25.28 1064.33 25.576C1064.05 25.864 1063.84 26.208 1063.68 26.608C1063.53 27.008 1063.46 27.44 1063.46 27.904C1063.46 28.384 1063.53 28.824 1063.67 29.224C1063.82 29.624 1064.04 29.968 1064.31 30.256C1064.58 30.544 1064.91 30.768 1065.3 30.928C1065.7 31.08 1066.14 31.156 1066.62 31.156C1067.33 31.156 1067.93 30.996 1068.42 30.676C1068.92 30.356 1069.29 29.824 1069.53 29.08H1068.03C1067.97 29.272 1067.82 29.456 1067.57 29.632C1067.32 29.8 1067.03 29.884 1066.68 29.884C1066.2 29.884 1065.84 29.76 1065.58 29.512C1065.32 29.264 1065.18 28.864 1065.16 28.312ZM1077.74 31L1079.69 24.796H1077.94L1076.8 28.996H1076.78L1075.72 24.796H1074.07L1073.03 29.008H1073.01L1071.87 24.796H1070.07L1072.04 31H1073.8L1074.86 26.836H1074.88L1075.99 31H1077.74Z" fill="#085FF7"/>
<rect x="1120" y="8" width="160" height="36" rx="18" fill="#085FF7"/>
<path d="M1162.04 25.312H1163.86C1163.81 24.816 1163.67 24.376 1163.45 23.992C1163.24 23.608 1162.96 23.288 1162.63 23.032C1162.3 22.768 1161.92 22.568 1161.5 22.432C1161.08 22.296 1160.64 22.228 1160.17 22.228C1159.51 22.228 1158.92 22.344 1158.39 22.576C1157.87 22.808 1157.43 23.128 1157.07 23.536C1156.71 23.944 1156.43 24.424 1156.24 24.976C1156.05 25.52 1155.95 26.112 1155.95 26.752C1155.95 27.376 1156.05 27.96 1156.24 28.504C1156.43 29.04 1156.71 29.508 1157.07 29.908C1157.43 30.308 1157.87 30.624 1158.39 30.856C1158.92 31.08 1159.51 31.192 1160.17 31.192C1160.69 31.192 1161.18 31.112 1161.62 30.952C1162.06 30.792 1162.44 30.56 1162.77 30.256C1163.1 29.952 1163.36 29.584 1163.56 29.152C1163.76 28.72 1163.89 28.236 1163.93 27.7H1162.11C1162.04 28.276 1161.84 28.74 1161.51 29.092C1161.19 29.444 1160.74 29.62 1160.17 29.62C1159.74 29.62 1159.38 29.54 1159.09 29.38C1158.79 29.212 1158.55 28.992 1158.37 28.72C1158.18 28.448 1158.05 28.144 1157.96 27.808C1157.88 27.464 1157.84 27.112 1157.84 26.752C1157.84 26.376 1157.88 26.012 1157.96 25.66C1158.05 25.308 1158.18 24.996 1158.37 24.724C1158.55 24.444 1158.79 24.224 1159.09 24.064C1159.38 23.896 1159.74 23.812 1160.17 23.812C1160.4 23.812 1160.62 23.852 1160.83 23.932C1161.04 24.004 1161.23 24.108 1161.4 24.244C1161.57 24.38 1161.71 24.54 1161.82 24.724C1161.93 24.9 1162.01 25.096 1162.04 25.312ZM1165.04 24.796V31H1166.74V28.204C1166.74 27.924 1166.77 27.664 1166.83 27.424C1166.88 27.184 1166.98 26.976 1167.1 26.8C1167.24 26.616 1167.42 26.472 1167.63 26.368C1167.85 26.264 1168.11 26.212 1168.42 26.212C1168.53 26.212 1168.64 26.22 1168.75 26.236C1168.86 26.244 1168.96 26.256 1169.04 26.272V24.688C1168.9 24.648 1168.78 24.628 1168.66 24.628C1168.45 24.628 1168.24 24.66 1168.04 24.724C1167.84 24.788 1167.65 24.88 1167.48 25C1167.3 25.112 1167.14 25.252 1167.01 25.42C1166.87 25.58 1166.76 25.756 1166.68 25.948H1166.66V24.796H1165.04ZM1173.67 27.232H1170.9C1170.91 27.112 1170.93 26.976 1170.97 26.824C1171.02 26.672 1171.09 26.528 1171.2 26.392C1171.31 26.256 1171.45 26.144 1171.63 26.056C1171.81 25.96 1172.04 25.912 1172.31 25.912C1172.73 25.912 1173.04 26.024 1173.24 26.248C1173.45 26.472 1173.59 26.8 1173.67 27.232ZM1170.9 28.312H1175.37C1175.41 27.832 1175.37 27.372 1175.25 26.932C1175.14 26.492 1174.96 26.1 1174.7 25.756C1174.45 25.412 1174.13 25.14 1173.74 24.94C1173.35 24.732 1172.89 24.628 1172.36 24.628C1171.89 24.628 1171.46 24.712 1171.07 24.88C1170.68 25.048 1170.35 25.28 1170.07 25.576C1169.79 25.864 1169.57 26.208 1169.42 26.608C1169.27 27.008 1169.19 27.44 1169.19 27.904C1169.19 28.384 1169.27 28.824 1169.41 29.224C1169.56 29.624 1169.77 29.968 1170.05 30.256C1170.32 30.544 1170.65 30.768 1171.04 30.928C1171.43 31.08 1171.87 31.156 1172.36 31.156C1173.07 31.156 1173.67 30.996 1174.16 30.676C1174.66 30.356 1175.03 29.824 1175.27 29.08H1173.77C1173.71 29.272 1173.56 29.456 1173.31 29.632C1173.06 29.8 1172.77 29.884 1172.42 29.884C1171.94 29.884 1171.57 29.76 1171.32 29.512C1171.06 29.264 1170.92 28.864 1170.9 28.312ZM1176.31 26.704C1176.34 26.304 1176.44 25.972 1176.61 25.708C1176.79 25.444 1177.01 25.232 1177.28 25.072C1177.56 24.912 1177.86 24.8 1178.2 24.736C1178.54 24.664 1178.88 24.628 1179.23 24.628C1179.54 24.628 1179.86 24.652 1180.18 24.7C1180.5 24.74 1180.79 24.824 1181.05 24.952C1181.32 25.08 1181.53 25.26 1181.7 25.492C1181.87 25.716 1181.95 26.016 1181.95 26.392V29.62C1181.95 29.9 1181.97 30.168 1182 30.424C1182.03 30.68 1182.09 30.872 1182.17 31H1180.44C1180.41 30.904 1180.38 30.808 1180.36 30.712C1180.34 30.608 1180.33 30.504 1180.32 30.4C1180.05 30.68 1179.73 30.876 1179.36 30.988C1178.99 31.1 1178.62 31.156 1178.23 31.156C1177.94 31.156 1177.66 31.12 1177.4 31.048C1177.15 30.976 1176.92 30.864 1176.73 30.712C1176.54 30.56 1176.39 30.368 1176.28 30.136C1176.17 29.904 1176.12 29.628 1176.12 29.308C1176.12 28.956 1176.18 28.668 1176.3 28.444C1176.43 28.212 1176.59 28.028 1176.78 27.892C1176.98 27.756 1177.2 27.656 1177.45 27.592C1177.71 27.52 1177.96 27.464 1178.22 27.424C1178.48 27.384 1178.73 27.352 1178.98 27.328C1179.22 27.304 1179.44 27.268 1179.64 27.22C1179.83 27.172 1179.98 27.104 1180.09 27.016C1180.2 26.92 1180.26 26.784 1180.25 26.608C1180.25 26.424 1180.22 26.28 1180.15 26.176C1180.1 26.064 1180.02 25.98 1179.91 25.924C1179.82 25.86 1179.7 25.82 1179.56 25.804C1179.44 25.78 1179.3 25.768 1179.14 25.768C1178.81 25.768 1178.54 25.84 1178.35 25.984C1178.16 26.128 1178.05 26.368 1178.02 26.704H1176.31ZM1180.25 27.964C1180.18 28.028 1180.08 28.08 1179.97 28.12C1179.87 28.152 1179.75 28.18 1179.62 28.204C1179.5 28.228 1179.38 28.248 1179.24 28.264C1179.1 28.28 1178.97 28.3 1178.83 28.324C1178.7 28.348 1178.58 28.38 1178.45 28.42C1178.33 28.46 1178.22 28.516 1178.12 28.588C1178.04 28.652 1177.96 28.736 1177.91 28.84C1177.85 28.944 1177.82 29.076 1177.82 29.236C1177.82 29.388 1177.85 29.516 1177.91 29.62C1177.96 29.724 1178.04 29.808 1178.14 29.872C1178.23 29.928 1178.34 29.968 1178.47 29.992C1178.6 30.016 1178.73 30.028 1178.87 30.028C1179.2 30.028 1179.46 29.972 1179.65 29.86C1179.83 29.748 1179.97 29.616 1180.06 29.464C1180.14 29.304 1180.2 29.144 1180.21 28.984C1180.24 28.824 1180.25 28.696 1180.25 28.6V27.964ZM1185.43 24.796V22.936H1183.73V24.796H1182.7V25.936H1183.73V29.596C1183.73 29.908 1183.78 30.16 1183.89 30.352C1183.99 30.544 1184.13 30.692 1184.31 30.796C1184.49 30.9 1184.7 30.968 1184.93 31C1185.17 31.04 1185.42 31.06 1185.69 31.06C1185.85 31.06 1186.03 31.056 1186.2 31.048C1186.38 31.04 1186.54 31.024 1186.68 31V29.68C1186.6 29.696 1186.52 29.708 1186.43 29.716C1186.34 29.724 1186.25 29.728 1186.15 29.728C1185.87 29.728 1185.67 29.68 1185.58 29.584C1185.48 29.488 1185.43 29.296 1185.43 29.008V25.936H1186.68V24.796H1185.43ZM1191.67 27.232H1188.9C1188.91 27.112 1188.93 26.976 1188.97 26.824C1189.02 26.672 1189.09 26.528 1189.2 26.392C1189.31 26.256 1189.45 26.144 1189.63 26.056C1189.81 25.96 1190.04 25.912 1190.31 25.912C1190.73 25.912 1191.04 26.024 1191.24 26.248C1191.45 26.472 1191.59 26.8 1191.67 27.232ZM1188.9 28.312H1193.37C1193.41 27.832 1193.37 27.372 1193.25 26.932C1193.14 26.492 1192.96 26.1 1192.7 25.756C1192.45 25.412 1192.13 25.14 1191.74 24.94C1191.35 24.732 1190.89 24.628 1190.36 24.628C1189.89 24.628 1189.46 24.712 1189.07 24.88C1188.68 25.048 1188.35 25.28 1188.07 25.576C1187.79 25.864 1187.57 26.208 1187.42 26.608C1187.27 27.008 1187.19 27.44 1187.19 27.904C1187.19 28.384 1187.27 28.824 1187.41 29.224C1187.56 29.624 1187.77 29.968 1188.05 30.256C1188.32 30.544 1188.65 30.768 1189.04 30.928C1189.43 31.08 1189.87 31.156 1190.36 31.156C1191.07 31.156 1191.67 30.996 1192.16 30.676C1192.66 30.356 1193.03 29.824 1193.27 29.08H1191.77C1191.71 29.272 1191.56 29.456 1191.31 29.632C1191.06 29.8 1190.77 29.884 1190.42 29.884C1189.94 29.884 1189.57 29.76 1189.32 29.512C1189.06 29.264 1188.92 28.864 1188.9 28.312ZM1201.95 26.98H1203.62C1203.59 26.58 1203.5 26.236 1203.33 25.948C1203.16 25.652 1202.94 25.408 1202.67 25.216C1202.4 25.016 1202.1 24.868 1201.76 24.772C1201.42 24.676 1201.07 24.628 1200.7 24.628C1200.2 24.628 1199.75 24.712 1199.36 24.88C1198.96 25.048 1198.63 25.284 1198.36 25.588C1198.09 25.884 1197.88 26.24 1197.74 26.656C1197.6 27.064 1197.53 27.508 1197.53 27.988C1197.53 28.452 1197.61 28.88 1197.76 29.272C1197.91 29.656 1198.12 29.988 1198.4 30.268C1198.67 30.548 1199 30.768 1199.38 30.928C1199.77 31.08 1200.2 31.156 1200.66 31.156C1201.49 31.156 1202.16 30.94 1202.69 30.508C1203.22 30.076 1203.54 29.448 1203.65 28.624H1202.01C1201.95 29.008 1201.81 29.316 1201.59 29.548C1201.37 29.772 1201.06 29.884 1200.65 29.884C1200.39 29.884 1200.16 29.824 1199.98 29.704C1199.8 29.584 1199.65 29.432 1199.54 29.248C1199.43 29.056 1199.36 28.844 1199.31 28.612C1199.26 28.38 1199.24 28.152 1199.24 27.928C1199.24 27.696 1199.26 27.464 1199.31 27.232C1199.36 26.992 1199.44 26.776 1199.55 26.584C1199.67 26.384 1199.82 26.224 1200 26.104C1200.19 25.976 1200.42 25.912 1200.69 25.912C1201.42 25.912 1201.84 26.268 1201.95 26.98ZM1204.54 26.704C1204.57 26.304 1204.67 25.972 1204.84 25.708C1205.02 25.444 1205.24 25.232 1205.51 25.072C1205.79 24.912 1206.09 24.8 1206.43 24.736C1206.77 24.664 1207.11 24.628 1207.46 24.628C1207.77 24.628 1208.09 24.652 1208.41 24.7C1208.73 24.74 1209.02 24.824 1209.28 24.952C1209.55 25.08 1209.76 25.26 1209.93 25.492C1210.1 25.716 1210.18 26.016 1210.18 26.392V29.62C1210.18 29.9 1210.2 30.168 1210.23 30.424C1210.26 30.68 1210.32 30.872 1210.4 31H1208.67C1208.64 30.904 1208.61 30.808 1208.59 30.712C1208.57 30.608 1208.56 30.504 1208.55 30.4C1208.28 30.68 1207.96 30.876 1207.59 30.988C1207.22 31.1 1206.85 31.156 1206.46 31.156C1206.17 31.156 1205.89 31.12 1205.63 31.048C1205.38 30.976 1205.15 30.864 1204.96 30.712C1204.77 30.56 1204.62 30.368 1204.51 30.136C1204.4 29.904 1204.35 29.628 1204.35 29.308C1204.35 28.956 1204.41 28.668 1204.53 28.444C1204.66 28.212 1204.82 28.028 1205.01 27.892C1205.21 27.756 1205.43 27.656 1205.68 27.592C1205.94 27.52 1206.19 27.464 1206.45 27.424C1206.71 27.384 1206.96 27.352 1207.21 27.328C1207.45 27.304 1207.67 27.268 1207.87 27.22C1208.06 27.172 1208.21 27.104 1208.32 27.016C1208.43 26.92 1208.49 26.784 1208.48 26.608C1208.48 26.424 1208.45 26.28 1208.38 26.176C1208.33 26.064 1208.25 25.98 1208.14 25.924C1208.05 25.86 1207.93 25.82 1207.79 25.804C1207.67 25.78 1207.53 25.768 1207.37 25.768C1207.04 25.768 1206.77 25.84 1206.58 25.984C1206.39 26.128 1206.28 26.368 1206.25 26.704H1204.54ZM1208.48 27.964C1208.41 28.028 1208.31 28.08 1208.2 28.12C1208.1 28.152 1207.98 28.18 1207.85 28.204C1207.73 28.228 1207.61 28.248 1207.47 28.264C1207.33 28.28 1207.2 28.3 1207.06 28.324C1206.93 28.348 1206.81 28.38 1206.68 28.42C1206.56 28.46 1206.45 28.516 1206.35 28.588C1206.27 28.652 1206.19 28.736 1206.14 28.84C1206.08 28.944 1206.05 29.076 1206.05 29.236C1206.05 29.388 1206.08 29.516 1206.14 29.62C1206.19 29.724 1206.27 29.808 1206.37 29.872C1206.46 29.928 1206.57 29.968 1206.7 29.992C1206.83 30.016 1206.96 30.028 1207.1 30.028C1207.43 30.028 1207.69 29.972 1207.88 29.86C1208.06 29.748 1208.2 29.616 1208.29 29.464C1208.37 29.304 1208.43 29.144 1208.44 28.984C1208.47 28.824 1208.48 28.696 1208.48 28.6V27.964ZM1211.55 24.796V31H1213.26V27.4C1213.26 27.096 1213.3 26.852 1213.39 26.668C1213.48 26.476 1213.58 26.332 1213.7 26.236C1213.83 26.132 1213.96 26.064 1214.09 26.032C1214.22 25.992 1214.33 25.972 1214.41 25.972C1214.68 25.972 1214.89 26.02 1215.02 26.116C1215.17 26.204 1215.27 26.324 1215.32 26.476C1215.39 26.628 1215.42 26.796 1215.43 26.98C1215.44 27.156 1215.44 27.336 1215.44 27.52V31H1217.15V27.544C1217.15 27.352 1217.16 27.164 1217.18 26.98C1217.21 26.788 1217.27 26.62 1217.35 26.476C1217.44 26.324 1217.55 26.204 1217.7 26.116C1217.85 26.02 1218.05 25.972 1218.29 25.972C1218.53 25.972 1218.71 26.012 1218.85 26.092C1218.99 26.172 1219.1 26.28 1219.17 26.416C1219.25 26.552 1219.29 26.712 1219.31 26.896C1219.32 27.08 1219.33 27.276 1219.33 27.484V31H1221.03V26.848C1221.03 26.448 1220.98 26.108 1220.87 25.828C1220.75 25.54 1220.6 25.308 1220.4 25.132C1220.2 24.956 1219.96 24.828 1219.68 24.748C1219.4 24.668 1219.09 24.628 1218.77 24.628C1218.33 24.628 1217.96 24.732 1217.64 24.94C1217.33 25.148 1217.08 25.388 1216.89 25.66C1216.73 25.276 1216.48 25.008 1216.15 24.856C1215.83 24.704 1215.47 24.628 1215.08 24.628C1214.67 24.628 1214.31 24.716 1213.99 24.892C1213.68 25.068 1213.41 25.316 1213.19 25.636H1213.16V24.796H1211.55ZM1225.51 29.884C1225.24 29.884 1225.01 29.828 1224.82 29.716C1224.62 29.604 1224.47 29.46 1224.35 29.284C1224.24 29.1 1224.15 28.888 1224.1 28.648C1224.05 28.408 1224.02 28.164 1224.02 27.916C1224.02 27.66 1224.05 27.412 1224.1 27.172C1224.14 26.932 1224.22 26.72 1224.34 26.536C1224.46 26.352 1224.61 26.204 1224.79 26.092C1224.98 25.972 1225.22 25.912 1225.5 25.912C1225.77 25.912 1226 25.972 1226.18 26.092C1226.38 26.204 1226.53 26.356 1226.65 26.548C1226.77 26.732 1226.86 26.944 1226.9 27.184C1226.96 27.424 1226.99 27.668 1226.99 27.916C1226.99 28.164 1226.96 28.408 1226.92 28.648C1226.87 28.888 1226.78 29.1 1226.66 29.284C1226.55 29.46 1226.4 29.604 1226.21 29.716C1226.02 29.828 1225.79 29.884 1225.51 29.884ZM1222.38 24.796V33.172H1224.08V30.232H1224.11C1224.32 30.536 1224.58 30.768 1224.9 30.928C1225.23 31.08 1225.58 31.156 1225.97 31.156C1226.42 31.156 1226.82 31.068 1227.16 30.892C1227.5 30.716 1227.78 30.48 1228.01 30.184C1228.24 29.888 1228.41 29.548 1228.52 29.164C1228.64 28.78 1228.69 28.38 1228.69 27.964C1228.69 27.524 1228.64 27.104 1228.52 26.704C1228.41 26.296 1228.24 25.94 1228.01 25.636C1227.78 25.332 1227.48 25.088 1227.13 24.904C1226.78 24.72 1226.36 24.628 1225.87 24.628C1225.49 24.628 1225.14 24.704 1224.82 24.856C1224.5 25.008 1224.23 25.252 1224.02 25.588H1224V24.796H1222.38ZM1229.64 26.704C1229.67 26.304 1229.77 25.972 1229.94 25.708C1230.12 25.444 1230.34 25.232 1230.62 25.072C1230.89 24.912 1231.19 24.8 1231.53 24.736C1231.87 24.664 1232.22 24.628 1232.56 24.628C1232.87 24.628 1233.19 24.652 1233.51 24.7C1233.83 24.74 1234.12 24.824 1234.38 24.952C1234.65 25.08 1234.86 25.26 1235.03 25.492C1235.2 25.716 1235.28 26.016 1235.28 26.392V29.62C1235.28 29.9 1235.3 30.168 1235.33 30.424C1235.36 30.68 1235.42 30.872 1235.5 31H1233.77C1233.74 30.904 1233.71 30.808 1233.69 30.712C1233.67 30.608 1233.66 30.504 1233.65 30.4C1233.38 30.68 1233.06 30.876 1232.69 30.988C1232.32 31.1 1231.95 31.156 1231.56 31.156C1231.27 31.156 1230.99 31.12 1230.74 31.048C1230.48 30.976 1230.26 30.864 1230.06 30.712C1229.87 30.56 1229.72 30.368 1229.61 30.136C1229.5 29.904 1229.45 29.628 1229.45 29.308C1229.45 28.956 1229.51 28.668 1229.63 28.444C1229.76 28.212 1229.92 28.028 1230.11 27.892C1230.31 27.756 1230.54 27.656 1230.78 27.592C1231.04 27.52 1231.3 27.464 1231.55 27.424C1231.81 27.384 1232.06 27.352 1232.31 27.328C1232.56 27.304 1232.78 27.268 1232.97 27.22C1233.16 27.172 1233.31 27.104 1233.42 27.016C1233.54 26.92 1233.59 26.784 1233.58 26.608C1233.58 26.424 1233.55 26.28 1233.48 26.176C1233.43 26.064 1233.35 25.98 1233.24 25.924C1233.15 25.86 1233.03 25.82 1232.9 25.804C1232.77 25.78 1232.63 25.768 1232.48 25.768C1232.14 25.768 1231.88 25.84 1231.68 25.984C1231.49 26.128 1231.38 26.368 1231.35 26.704H1229.64ZM1233.58 27.964C1233.51 28.028 1233.42 28.08 1233.3 28.12C1233.2 28.152 1233.08 28.18 1232.96 28.204C1232.84 28.228 1232.71 28.248 1232.57 28.264C1232.44 28.28 1232.3 28.3 1232.16 28.324C1232.04 28.348 1231.91 28.38 1231.78 28.42C1231.66 28.46 1231.55 28.516 1231.46 28.588C1231.37 28.652 1231.3 28.736 1231.24 28.84C1231.18 28.944 1231.16 29.076 1231.16 29.236C1231.16 29.388 1231.18 29.516 1231.24 29.62C1231.3 29.724 1231.37 29.808 1231.47 29.872C1231.56 29.928 1231.68 29.968 1231.8 29.992C1231.93 30.016 1232.06 30.028 1232.2 30.028C1232.54 30.028 1232.8 29.972 1232.98 29.86C1233.16 29.748 1233.3 29.616 1233.39 29.464C1233.48 29.304 1233.53 29.144 1233.54 28.984C1233.57 28.824 1233.58 28.696 1233.58 28.6V27.964ZM1238.36 23.836V22.432H1236.65V23.836H1238.36ZM1236.65 24.796V31H1238.36V24.796H1236.65ZM1242.59 29.536C1242.33 29.536 1242.11 29.48 1241.93 29.368C1241.76 29.256 1241.61 29.112 1241.5 28.936C1241.4 28.76 1241.32 28.564 1241.27 28.348C1241.23 28.124 1241.21 27.9 1241.21 27.676C1241.21 27.444 1241.24 27.224 1241.28 27.016C1241.34 26.8 1241.42 26.612 1241.54 26.452C1241.66 26.284 1241.8 26.152 1241.97 26.056C1242.14 25.96 1242.35 25.912 1242.59 25.912C1242.87 25.912 1243.1 25.964 1243.29 26.068C1243.47 26.172 1243.62 26.312 1243.73 26.488C1243.84 26.664 1243.92 26.868 1243.97 27.1C1244.02 27.324 1244.04 27.564 1244.04 27.82C1244.04 28.044 1244.01 28.26 1243.95 28.468C1243.89 28.668 1243.8 28.848 1243.68 29.008C1243.56 29.168 1243.41 29.296 1243.23 29.392C1243.04 29.488 1242.83 29.536 1242.59 29.536ZM1245.66 30.604V24.796H1244.04V25.624H1244.02C1243.81 25.264 1243.55 25.008 1243.24 24.856C1242.94 24.704 1242.58 24.628 1242.17 24.628C1241.74 24.628 1241.36 24.712 1241.02 24.88C1240.69 25.048 1240.42 25.276 1240.19 25.564C1239.97 25.844 1239.8 26.172 1239.68 26.548C1239.56 26.916 1239.51 27.3 1239.51 27.7C1239.51 28.124 1239.56 28.528 1239.65 28.912C1239.76 29.288 1239.92 29.62 1240.13 29.908C1240.35 30.188 1240.62 30.412 1240.96 30.58C1241.3 30.74 1241.7 30.82 1242.16 30.82C1242.54 30.82 1242.89 30.744 1243.23 30.592C1243.57 30.432 1243.84 30.188 1244.02 29.86H1244.04V30.676C1244.05 31.116 1243.94 31.48 1243.72 31.768C1243.5 32.056 1243.16 32.2 1242.68 32.2C1242.37 32.2 1242.1 32.136 1241.87 32.008C1241.64 31.888 1241.48 31.668 1241.4 31.348H1239.71C1239.74 31.7 1239.83 32 1240 32.248C1240.18 32.504 1240.39 32.712 1240.65 32.872C1240.91 33.032 1241.2 33.148 1241.51 33.22C1241.83 33.3 1242.14 33.34 1242.45 33.34C1243.16 33.34 1243.73 33.244 1244.15 33.052C1244.58 32.86 1244.9 32.624 1245.12 32.344C1245.35 32.072 1245.49 31.776 1245.56 31.456C1245.63 31.136 1245.66 30.852 1245.66 30.604ZM1247.04 24.796V31H1248.74V27.748C1248.74 27.116 1248.84 26.664 1249.05 26.392C1249.26 26.112 1249.6 25.972 1250.06 25.972C1250.47 25.972 1250.75 26.1 1250.91 26.356C1251.07 26.604 1251.15 26.984 1251.15 27.496V31H1252.86V27.184C1252.86 26.8 1252.82 26.452 1252.75 26.14C1252.68 25.82 1252.57 25.552 1252.4 25.336C1252.23 25.112 1252 24.94 1251.7 24.82C1251.42 24.692 1251.04 24.628 1250.59 24.628C1250.23 24.628 1249.88 24.712 1249.53 24.88C1249.19 25.04 1248.91 25.3 1248.69 25.66H1248.66V24.796H1247.04Z" fill="white"/>
<defs>
<filter id="filter0_dd" x="0" y="0" width="1296" height="51" filterUnits="userSpaceOnUse" color-interpolation-filters="sRGB">
<feFlood flood-opacity="0" result="BackgroundImageFix"/>
<feColorMatrix in="SourceAlpha" type="matrix" values="0 0 0 0 0 0 0 0 0 0 0 0 0 0 0 0 0 0 127 0"/>
<feOffset dy="1"/>
<feColorMatrix type="matrix" values="0 0 0 0 0.94902 0 0 0 0 0.94902 0 0 0 0 0.94902 0 0 0 1 0"/>
<feBlend mode="normal" in2="BackgroundImageFix" result="effect1_dropShadow"/>
<feColorMatrix in="SourceAlpha" type="matrix" values="0 0 0 0 0 0 0 0 0 0 0 0 0 0 0 0 0 0 127 0"/>
<feOffset dy="-1"/>
<feColorMatrix type="matrix" values="0 0 0 0 0.94902 0 0 0 0 0.94902 0 0 0 0 0.94902 0 0 0 1 0"/>
<feBlend mode="normal" in2="effect1_dropShadow" result="effect2_dropShadow"/>
<feBlend mode="normal" in="SourceGraphic" in2="effect2_dropShadow" result="shape"/>
</filter>
</defs>
</svg>
