<svg width="24" height="24" viewBox="0 0 24 24" fill="none" xmlns="http://www.w3.org/2000/svg">
<path d="M20.08 11.42L16.04 5.77C15.7 5.29 15.15 5 14.56 5C13.07 5 12.21 6.68 13.07 7.89L16 12L13.07 16.11C12.2 17.32 13.07 19 14.56 19C15.15 19 15.71 18.71 16.05 18.23L20.09 12.58C20.33 12.23 20.33 11.77 20.08 11.42Z" fill="#CCCCCC"/>
<path d="M13.08 11.42L9.05 5.77C8.7 5.29 8.15 5 7.56 5C6.07 5 5.2 6.68 6.07 7.89L9 12L6.07 16.11C5.2 17.32 6.07 19 7.56 19C8.15 19 8.71 18.71 9.05 18.23L13.09 12.58C13.33 12.23 13.33 11.77 13.08 11.42Z" fill="#CCCCCC"/>
</svg>
