<svg width="64" height="18" viewBox="0 0 64 18" fill="none" xmlns="http://www.w3.org/2000/svg">
<rect width="64" height="18" rx="4" fill="white"/>
<path d="M8.78067 5.574V12H10.1937V9.345H12.8847V8.247H10.1937V6.762H13.2987V5.574H8.78067ZM14.1156 5.574V12H18.9936V10.812H15.5286V9.237H18.6426V8.139H15.5286V6.762H18.9216V5.574H14.1156ZM21.5716 9.516L22.4086 7.158H22.4266L23.2366 9.516H21.5716ZM21.7066 5.574L19.2766 12H20.6986L21.2026 10.569H23.6056L24.0916 12H25.5586L23.1556 5.574H21.7066ZM26.7085 6.762V12H28.1215V6.762H30.0475V5.574H24.7825V6.762H26.7085ZM36.2425 9.57V5.574H34.8295V9.57C34.8295 10.05 34.7335 10.404 34.5415 10.632C34.3495 10.854 34.0015 10.965 33.4975 10.965C33.2095 10.965 32.9785 10.926 32.8045 10.848C32.6365 10.764 32.5045 10.659 32.4085 10.533C32.3125 10.401 32.2495 10.251 32.2195 10.083C32.1895 9.915 32.1745 9.744 32.1745 9.57V5.574H30.7615V9.57C30.7615 10.446 30.9985 11.094 31.4725 11.514C31.9525 11.934 32.6275 12.144 33.4975 12.144C34.3555 12.144 35.0275 11.934 35.5135 11.514C35.9995 11.088 36.2425 10.44 36.2425 9.57ZM38.8724 8.481V6.672H40.4204C40.7444 6.672 40.9874 6.744 41.1494 6.888C41.3114 7.026 41.3924 7.251 41.3924 7.563C41.3924 7.887 41.3114 8.121 41.1494 8.265C40.9874 8.409 40.7444 8.481 40.4204 8.481H38.8724ZM37.4594 5.574V12H38.8724V9.489H40.2854C40.6394 9.489 40.8944 9.567 41.0504 9.723C41.2064 9.879 41.3084 10.125 41.3564 10.461C41.3924 10.719 41.4194 10.989 41.4374 11.271C41.4554 11.553 41.5034 11.796 41.5814 12H42.9944C42.9284 11.91 42.8774 11.802 42.8414 11.676C42.8114 11.544 42.7874 11.406 42.7694 11.262C42.7574 11.118 42.7484 10.977 42.7424 10.839C42.7364 10.701 42.7304 10.581 42.7244 10.479C42.7124 10.317 42.6884 10.155 42.6524 9.993C42.6224 9.831 42.5714 9.684 42.4994 9.552C42.4274 9.414 42.3344 9.297 42.2204 9.201C42.1064 9.099 41.9624 9.024 41.7884 8.976V8.958C42.1484 8.814 42.4064 8.604 42.5624 8.328C42.7244 8.052 42.8054 7.725 42.8054 7.347C42.8054 7.101 42.7604 6.873 42.6704 6.663C42.5864 6.447 42.4604 6.258 42.2924 6.096C42.1304 5.934 41.9324 5.808 41.6984 5.718C41.4704 5.622 41.2124 5.574 40.9244 5.574H37.4594ZM43.9545 5.574V12H48.8325V10.812H45.3675V9.237H48.4815V8.139H45.3675V6.762H48.7605V5.574H43.9545ZM51.2034 10.812V6.762H52.2114C52.5594 6.762 52.8504 6.813 53.0844 6.915C53.3244 7.011 53.5164 7.152 53.6604 7.338C53.8044 7.524 53.9064 7.749 53.9664 8.013C54.0324 8.271 54.0654 8.562 54.0654 8.886C54.0654 9.24 54.0204 9.54 53.9304 9.786C53.8404 10.032 53.7204 10.233 53.5704 10.389C53.4204 10.539 53.2494 10.647 53.0574 10.713C52.8654 10.779 52.6674 10.812 52.4634 10.812H51.2034ZM49.7904 5.574V12H52.5624C53.0544 12 53.4804 11.919 53.8404 11.757C54.2064 11.589 54.5094 11.361 54.7494 11.073C54.9954 10.785 55.1784 10.443 55.2984 10.047C55.4184 9.651 55.4784 9.219 55.4784 8.751C55.4784 8.217 55.4034 7.752 55.2534 7.356C55.1094 6.96 54.9054 6.63 54.6414 6.366C54.3834 6.102 54.0744 5.904 53.7144 5.772C53.3604 5.64 52.9764 5.574 52.5624 5.574H49.7904Z" fill="#2D2D2D"/>
</svg>
