<svg width="60" height="18" viewBox="0 0 60 18" fill="none" xmlns="http://www.w3.org/2000/svg">
<rect width="60" height="18" rx="4" fill="white"/>
<path d="M10.0394 8.598V6.672H11.1374C11.2994 6.672 11.4554 6.684 11.6054 6.708C11.7554 6.732 11.8874 6.78 12.0014 6.852C12.1154 6.918 12.2054 7.014 12.2714 7.14C12.3434 7.266 12.3794 7.431 12.3794 7.635C12.3794 7.839 12.3434 8.004 12.2714 8.13C12.2054 8.256 12.1154 8.355 12.0014 8.427C11.8874 8.493 11.7554 8.538 11.6054 8.562C11.4554 8.586 11.2994 8.598 11.1374 8.598H10.0394ZM8.62637 5.574V12H10.0394V9.696H11.5244C11.9264 9.696 12.2684 9.639 12.5504 9.525C12.8324 9.405 13.0604 9.249 13.2344 9.057C13.4144 8.865 13.5434 8.646 13.6214 8.4C13.7054 8.148 13.7474 7.893 13.7474 7.635C13.7474 7.371 13.7054 7.116 13.6214 6.87C13.5434 6.624 13.4144 6.405 13.2344 6.213C13.0604 6.021 12.8324 5.868 12.5504 5.754C12.2684 5.634 11.9264 5.574 11.5244 5.574H8.62637ZM16.0423 8.481V6.672H17.5903C17.9143 6.672 18.1573 6.744 18.3193 6.888C18.4813 7.026 18.5623 7.251 18.5623 7.563C18.5623 7.887 18.4813 8.121 18.3193 8.265C18.1573 8.409 17.9143 8.481 17.5903 8.481H16.0423ZM14.6293 5.574V12H16.0423V9.489H17.4553C17.8093 9.489 18.0643 9.567 18.2203 9.723C18.3763 9.879 18.4783 10.125 18.5263 10.461C18.5623 10.719 18.5893 10.989 18.6073 11.271C18.6253 11.553 18.6733 11.796 18.7513 12H20.1643C20.0983 11.91 20.0473 11.802 20.0113 11.676C19.9813 11.544 19.9573 11.406 19.9393 11.262C19.9273 11.118 19.9183 10.977 19.9123 10.839C19.9063 10.701 19.9003 10.581 19.8943 10.479C19.8823 10.317 19.8583 10.155 19.8223 9.993C19.7923 9.831 19.7413 9.684 19.6693 9.552C19.5973 9.414 19.5043 9.297 19.3903 9.201C19.2763 9.099 19.1323 9.024 18.9583 8.976V8.958C19.3183 8.814 19.5763 8.604 19.7323 8.328C19.8943 8.052 19.9753 7.725 19.9753 7.347C19.9753 7.101 19.9303 6.873 19.8403 6.663C19.7563 6.447 19.6303 6.258 19.4623 6.096C19.3003 5.934 19.1023 5.808 18.8683 5.718C18.6403 5.622 18.3823 5.574 18.0943 5.574H14.6293ZM21.1244 5.574V12H26.0024V10.812H22.5374V9.237H25.6514V8.139H22.5374V6.762H25.9304V5.574H21.1244ZM26.9604 5.574V12H28.2834V7.491H28.3014L29.8764 12H30.9654L32.5404 7.446H32.5584V12H33.8814V5.574H31.8924L30.4704 9.993H30.4524L28.9494 5.574H26.9604ZM35.1254 5.574V12H36.5384V5.574H35.1254ZM43.2337 9.57V5.574H41.8207V9.57C41.8207 10.05 41.7247 10.404 41.5327 10.632C41.3407 10.854 40.9927 10.965 40.4887 10.965C40.2007 10.965 39.9697 10.926 39.7957 10.848C39.6277 10.764 39.4957 10.659 39.3997 10.533C39.3037 10.401 39.2407 10.251 39.2107 10.083C39.1807 9.915 39.1657 9.744 39.1657 9.57V5.574H37.7527V9.57C37.7527 10.446 37.9897 11.094 38.4637 11.514C38.9437 11.934 39.6187 12.144 40.4887 12.144C41.3467 12.144 42.0187 11.934 42.5047 11.514C42.9907 11.088 43.2337 10.44 43.2337 9.57ZM44.4506 5.574V12H45.7736V7.491H45.7916L47.3666 12H48.4556L50.0306 7.446H50.0486V12H51.3716V5.574H49.3826L47.9606 9.993H47.9426L46.4396 5.574H44.4506Z" fill="#2D2D2D"/>
</svg>
