<svg width="24" height="24" viewBox="0 0 24 24" fill="none" xmlns="http://www.w3.org/2000/svg">
<circle cx="12" cy="12" r="12" fill="#FCE356"/>
<path d="M18.1138 10.0435L18.1144 10.0457C18.244 10.5747 18.1262 11.1162 17.7951 11.5424C17.7898 11.5488 17.778 11.5615 17.7517 11.5864C17.7469 11.591 17.7399 11.5976 17.7314 11.6054C17.7075 11.6277 17.6726 11.6603 17.6465 11.6864L17.5 11.8329V12.04V16.6667C17.5 17.1239 17.1239 17.5 16.6667 17.5H7.33334C6.87615 17.5 6.5 17.1239 6.5 16.6667V12.04V11.8481L6.37165 11.7055C6.34534 11.6763 6.31998 11.6512 6.29953 11.6315C6.28858 11.621 6.27232 11.6057 6.26059 11.5947C6.25524 11.5896 6.25084 11.5855 6.2483 11.5831C6.22335 11.5594 6.21736 11.5521 6.21734 11.5521L6.21272 11.5457L6.2075 11.539C5.87641 11.1148 5.76077 10.5779 5.88646 10.0423C5.88654 10.0419 5.88663 10.0416 5.88671 10.0412L6.58617 7.13015L6.58617 7.13015L6.58664 7.12816C6.67431 6.75659 7.0026 6.5 7.36667 6.5H8.84H10.1867H11.3333H12.6667H13.8133H15.1533H16.6267C16.9972 6.5 17.3206 6.75017 17.4141 7.13127C17.4142 7.13154 17.4142 7.1318 17.4143 7.13206L18.1138 10.0435ZM9.17648 7.39258L9.24322 6.83333H8.68H7.36667H6.96837L6.87933 7.22156L6.21334 10.1252C6.11328 10.5403 6.20275 10.9803 6.46783 11.3216C6.6157 11.5219 6.95402 11.8333 7.48667 11.8333C8.17337 11.8333 8.7089 11.2901 8.7896 10.6344L8.78981 10.6326L9.17648 7.39258ZM17.0928 7.20985L17.0003 6.82462L16.6041 6.82667L15.3174 6.83334L14.7571 6.83624L14.8235 7.39258L15.2099 10.6301C15.2833 11.2969 15.8337 11.8333 16.5133 11.8333C17.0632 11.8333 17.3924 11.5094 17.5337 11.3283C17.8036 10.9849 17.894 10.5479 17.7931 10.1242L17.7928 10.1232L17.0928 7.20985ZM12.6667 6.83333H12.1667V7.33333V10.46C12.1667 11.1822 12.7244 11.8333 13.48 11.8333C13.8873 11.8333 14.239 11.6787 14.4923 11.3938C14.7636 11.0912 14.8872 10.6864 14.8362 10.2848C14.8361 10.2842 14.836 10.2836 14.8359 10.2831L14.4697 7.27294L14.4162 6.83333H13.9733H12.6667ZM9.5013 11.3865L9.50684 11.3929L9.5126 11.3991C9.75512 11.6619 10.0902 11.8333 10.4733 11.8333C11.2578 11.8333 11.8333 11.2009 11.8333 10.46V7.33333V6.83333H11.3333H10.0267H9.58382L9.53033 7.27294L9.16367 10.2863L9.16358 10.2863L9.16261 10.2957C9.12234 10.6883 9.24219 11.0859 9.5013 11.3865ZM7.39536 12.1505L6.83334 12.0803V12.6467V16C6.83334 16.6428 7.3572 17.1667 8 17.1667H16C16.6445 17.1667 17.1617 16.643 17.1733 16.0091L17.1733 16.0091V16V12.6467V12.0803L16.6113 12.1505C16.5869 12.1536 16.5654 12.1571 16.5496 12.1599L16.5286 12.1635L16.5145 12.166C16.5129 12.1662 16.5115 12.1665 16.5103 12.1666C16.0761 12.164 15.6794 11.9841 15.3832 11.6828L15.0297 11.3232L14.6731 11.6798C14.361 11.9919 13.9526 12.1667 13.5333 12.1667C13.071 12.1667 12.6602 11.9828 12.3541 11.6871L12.0037 11.3486L11.6562 11.6901C11.3544 11.9867 10.9572 12.1667 10.52 12.1667C10.0483 12.1667 9.64145 11.9877 9.33356 11.6798L8.97697 11.3232L8.62344 11.6828C8.32727 11.9841 7.93055 12.164 7.49633 12.1666C7.49518 12.1665 7.49381 12.1662 7.4922 12.166L7.47806 12.1635L7.45711 12.1599C7.44129 12.1571 7.41977 12.1536 7.39536 12.1505Z" fill="#4B4B4B" stroke="white"/>
</svg>
