<svg width="32" height="32" viewBox="0 0 32 32" fill="none" xmlns="http://www.w3.org/2000/svg">
<mask id="mask0" mask-type="alpha" maskUnits="userSpaceOnUse" x="4" y="1" width="20" height="30">
<path fill-rule="evenodd" clip-rule="evenodd" d="M22.7456 3.45496C20.2251 1.26677 16.8693 1.20963 13.9242 2.2755C9.64801 4.06584 6.67455 7.97324 5.3294 12.6627C5.10287 13.5434 4.91876 14.4246 4.81964 15.3338C4.81964 15.337 4.81875 15.3512 4.81734 15.3734C4.80623 15.5492 4.76318 16.2303 4.87642 16.0157C4.9715 15.8567 5.02715 15.642 5.07878 15.4427C5.09625 15.3753 5.11325 15.3097 5.13117 15.2486C5.78246 13.0462 6.57536 11.0426 7.79309 9.13846C10.7099 4.8333 15.3968 2.06229 20.3526 3.59678C21.2729 3.90935 22.0942 4.36424 22.9154 4.90425C22.9261 4.91206 22.9415 4.92363 22.9608 4.93813C23.2221 5.13469 24.2006 5.8706 23.9633 5.10313C23.7508 4.44944 23.2128 3.8951 22.7456 3.45496ZM17.6912 13.4568C15.853 14.3978 13.603 13.6626 12.6767 11.8245C11.7355 9.98632 12.4708 7.73655 14.3089 6.80985C16.1471 5.86894 18.397 6.60403 19.3234 8.44226C20.2646 10.2803 19.5292 12.5302 17.6912 13.4568ZM13.3334 27.3779V16.528C13.6667 16.5576 13.9841 16.5724 14.3174 16.5724C15.9049 16.5724 17.3968 16.174 18.6667 15.4667V27.3779C18.6667 28.3953 18.4128 29.1471 17.9206 29.6482C17.4286 30.1493 16.7779 30.4 15.9841 30.4C15.2063 30.4 14.5874 30.1493 14.0794 29.6333C13.5873 29.1323 13.3334 28.3805 13.3334 27.3779Z" fill="white"/>
</mask>
<g mask="url(#mask0)">
<path d="M0 0H32V32H0V0Z" fill="#9013FE"/>
<rect width="32" height="32" fill="white"/>
</g>
</svg>
