<svg width="24" height="24" viewBox="0 0 24 24" fill="none" xmlns="http://www.w3.org/2000/svg">
<circle cx="12" cy="12" r="12" fill="#1497FF"/>
<path d="M12.6667 14.6667H11.3333C10.9667 14.6667 10.6667 14.3667 10.6667 14H6.00668V16.6667C6.00668 17.4 6.60668 18 7.34001 18H16.6667C17.4 18 18 17.4 18 16.6667V14H13.3333C13.3333 14.3667 13.0333 14.6667 12.6667 14.6667ZM17.3333 8.66667H14.6667C14.6667 7.19333 13.4733 6 12 6C10.5267 6 9.33334 7.19333 9.33334 8.66667H6.66668C5.93334 8.66667 5.33334 9.26667 5.33334 10V12C5.33334 12.74 5.92668 13.3333 6.66668 13.3333H10.6667V12.6667C10.6667 12.3 10.9667 12 11.3333 12H12.6667C13.0333 12 13.3333 12.3 13.3333 12.6667V13.3333H17.3333C18.0667 13.3333 18.6667 12.7333 18.6667 12V10C18.6667 9.26667 18.0667 8.66667 17.3333 8.66667ZM10.6667 8.66667C10.6667 7.93333 11.2667 7.33333 12 7.33333C12.7333 7.33333 13.3333 7.93333 13.3333 8.66667H10.66H10.6667Z" fill="white"/>
</svg>
