<svg width="101" height="29" viewBox="0 0 101 29" fill="none" xmlns="http://www.w3.org/2000/svg">
<path d="M35.306 17C36.296 17 36.926 16.406 36.926 15.452V12.806C36.926 11.996 36.296 11.24 35.18 10.97C36.296 10.7 36.836 9.908 36.836 9.08V6.38C36.836 5.48 36.206 4.85 35.216 4.85H27.728V17H35.306ZM33.83 14.516C33.83 14.606 33.776 14.696 33.65 14.696H30.842V12.014H33.65C33.776 12.014 33.83 12.122 33.83 12.212V14.516ZM33.83 9.584C33.83 9.692 33.776 9.782 33.65 9.782H30.842V7.262H33.65C33.776 7.262 33.83 7.37 33.83 7.46V9.584ZM41.3994 4.85C40.5534 4.85 39.9774 5.426 39.9774 6.272V15.578C39.9774 16.424 40.5534 17 41.3994 17H47.6454C48.4914 17 49.0674 16.424 49.0674 15.578V6.272C49.0674 5.426 48.4914 4.85 47.6454 4.85H41.3994ZM45.9354 14.21C45.9354 14.3 45.8454 14.372 45.7374 14.372H43.2714C43.1994 14.372 43.1094 14.3 43.1094 14.21V7.676C43.1094 7.568 43.1994 7.478 43.2714 7.478H45.7374C45.8454 7.478 45.9354 7.568 45.9354 7.676V14.21ZM58.8337 17H61.8037V4.85H58.9237V11.546L55.2877 4.85H52.4077V17H55.2877V10.322L58.8337 17ZM66.5713 4.85C65.7253 4.85 65.1493 5.426 65.1493 6.272V15.578C65.1493 16.424 65.7253 17 66.5713 17H72.8173C73.6633 17 74.2393 16.424 74.2393 15.578V6.272C74.2393 5.426 73.6633 4.85 72.8173 4.85H66.5713ZM71.1073 14.21C71.1073 14.3 71.0173 14.372 70.9093 14.372H68.4433C68.3713 14.372 68.2813 14.3 68.2813 14.21V7.676C68.2813 7.568 68.3713 7.478 68.4433 7.478H70.9093C71.0173 7.478 71.1073 7.568 71.1073 7.676V14.21ZM85.1576 17C86.1476 17 86.7776 16.406 86.7776 15.452V12.806C86.7776 11.996 86.1476 11.24 85.0316 10.97C86.1476 10.7 86.6876 9.908 86.6876 9.08V6.38C86.6876 5.48 86.0576 4.85 85.0676 4.85H77.5796V17H85.1576ZM83.6816 14.516C83.6816 14.606 83.6276 14.696 83.5016 14.696H80.6936V12.014H83.5016C83.6276 12.014 83.6816 12.122 83.6816 12.212V14.516ZM83.6816 9.584C83.6816 9.692 83.6276 9.782 83.5016 9.782H80.6936V7.262H83.5016C83.6276 7.262 83.6816 7.37 83.6816 7.46V9.584ZM91.251 4.85C90.405 4.85 89.829 5.426 89.829 6.272V15.578C89.829 16.424 90.405 17 91.251 17H97.497C98.343 17 98.919 16.424 98.919 15.578V6.272C98.919 5.426 98.343 4.85 97.497 4.85H91.251ZM95.787 14.21C95.787 14.3 95.697 14.372 95.589 14.372H93.123C93.051 14.372 92.961 14.3 92.961 14.21V7.676C92.961 7.568 93.051 7.478 93.123 7.478H95.589C95.697 7.478 95.787 7.568 95.787 7.676V14.21Z" fill="white"/>
<path d="M27.6905 20.25V27H29.4305V24.86H30.1705L31.0105 27H32.7105L31.8805 24.86H31.9305C32.3405 24.86 32.6905 24.51 32.6905 24.1V21.01C32.6905 20.58 32.3405 20.25 31.9305 20.25H27.6905ZM30.9605 23.41C30.9605 23.45 30.9105 23.5 30.8705 23.5H29.4305V21.7H30.8705C30.9105 21.7 30.9605 21.75 30.9605 21.8V23.41ZM35.4776 27H39.8876V25.54H37.2076V24.32H39.5276V22.88H37.2076V21.7H39.8876V20.25H35.4776V27ZM45.7213 24.48V25.44C45.7213 25.5 45.6713 25.54 45.6313 25.54H44.3613C44.3013 25.54 44.2513 25.5 44.2513 25.44V21.81C44.2513 21.75 44.3013 21.7 44.3613 21.7H45.6313C45.6713 21.7 45.7213 21.75 45.7213 21.81V22.75H47.4613V21.01C47.4613 20.6 47.1013 20.25 46.6713 20.25H43.2813C42.8513 20.25 42.5113 20.6 42.5113 21.01V26.23C42.5113 26.67 42.8513 27 43.2813 27H46.6713C47.1013 27 47.4613 26.67 47.4613 26.23V24.48H45.7213ZM50.1338 20.25V27H51.8738V24.86H52.6138L53.4538 27H55.1538L54.3238 24.86H54.3738C54.7838 24.86 55.1338 24.51 55.1338 24.1V21.01C55.1338 20.58 54.7838 20.25 54.3738 20.25H50.1338ZM53.4038 23.41C53.4038 23.45 53.3538 23.5 53.3138 23.5H51.8738V21.7H53.3138C53.3538 21.7 53.4038 21.75 53.4038 21.8V23.41ZM57.9209 20.25V26.23C57.9209 26.67 58.2809 27 58.6909 27H62.1109C62.5309 27 62.8709 26.67 62.8709 26.23V20.25H61.1309V25.45C61.1309 25.5 61.0809 25.54 61.0209 25.54H59.7509C59.7109 25.54 59.6609 25.5 59.6609 25.45V20.25H57.9209ZM67.5162 20.25H65.7862V27H67.5162V20.25ZM69.8085 20.25V21.71H71.3385V27H73.0785V21.71H74.6085V20.25H69.8085ZM78.6275 20.25H76.8975V27H78.6275V20.25ZM85.1198 27H86.7698V20.25H85.1698V23.97L83.1498 20.25H81.5498V27H83.1498V23.29L85.1198 27ZM92.0585 24.29H92.9685V25.43C92.9685 25.49 92.9285 25.53 92.8585 25.53H91.4585C91.4085 25.53 91.3585 25.49 91.3585 25.43V21.81C91.3585 21.75 91.4085 21.7 91.4585 21.7H94.5885V20.25H90.4085C89.9785 20.25 89.6285 20.6 89.6285 21.01V26.23C89.6285 26.67 89.9785 27 90.4085 27H93.7885C94.2185 27 94.5585 26.67 94.5585 26.23V24.29H95.1185V22.86H92.0585V24.29Z" fill="white"/>
<circle cx="11" cy="16" r="11" fill="white"/>
</svg>
