<svg width="16" height="16" viewBox="0 0 16 16" fill="none" xmlns="http://www.w3.org/2000/svg">
<path d="M12.86 11.5266L12 10.6666V7.33329C12 5.28663 10.9067 3.57329 9 3.11996V2.66663C9 2.11329 8.55334 1.66663 8 1.66663C7.44667 1.66663 7 2.11329 7 2.66663V3.11996C5.08667 3.57329 4 5.27996 4 7.33329V10.6666L3.14 11.5266C2.72 11.9466 3.01334 12.6666 3.60667 12.6666H12.3867C12.9867 12.6666 13.28 11.9466 12.86 11.5266ZM10.6667 11.3333H5.33334V7.33329C5.33334 5.67996 6.34 4.33329 8 4.33329C9.66 4.33329 10.6667 5.67996 10.6667 7.33329V11.3333ZM8 14.6666C8.73334 14.6666 9.33334 14.0666 9.33334 13.3333H6.66667C6.66667 14.0666 7.26 14.6666 8 14.6666Z" fill="white"/>
</svg>
