<svg width="90" height="24" viewBox="0 0 90 24" fill="none" xmlns="http://www.w3.org/2000/svg">
<g clip-path="url(#clip0)">
<path d="M48.1385 12.0282L36.111 0V24.0282L48.1385 12.0282Z" fill="white"/>
<path d="M24.0835 12.0282L36.111 0H12.0559L24.0835 12.0282Z" fill="white"/>
<path d="M0 12.0282L12.0558 24.0282V0L0 12.0282Z" fill="white"/>
<path d="M24.0835 12.0282L12.0559 24.0282H36.111L24.0835 12.0282Z" fill="white"/>
<path d="M58.6944 12.7341H54.3362V17.0259H52.1571V6.97412H54.3362V11.0965H58.6944V6.97412H60.8735V17.0259H58.6944V12.7341Z" fill="white"/>
<path d="M66.1373 17.2235C63.9582 17.2235 62.1753 16.3482 62.147 13.9482H64.3261C64.3544 15.0212 64.977 15.6706 66.1656 15.6706C67.0429 15.6706 68.0617 15.2188 68.0617 14.2306C68.0617 13.44 67.3825 13.2141 66.2505 12.8753L65.5147 12.6776C63.9299 12.2259 62.3451 11.6047 62.3451 9.79763C62.3451 7.56704 64.4393 6.80469 66.3354 6.80469C68.2881 6.80469 69.9861 7.48233 70.0144 9.71292H67.8353C67.7504 8.80939 67.2127 8.27292 66.1939 8.27292C65.3732 8.27292 64.5808 8.69645 64.5808 9.59998C64.5808 10.3341 65.26 10.56 66.675 11.0117L67.524 11.2659C69.2503 11.8023 70.354 12.3953 70.354 14.0894C70.3257 16.3482 68.1183 17.2235 66.1373 17.2235Z" fill="white"/>
<path d="M71.5709 7.00237H75.0801C75.731 6.97414 76.4102 7.00237 77.0611 7.11531C78.278 7.39767 79.2119 8.18825 79.2119 9.54355C79.2119 10.8424 78.3912 11.4918 77.2026 11.8024C78.561 12.0565 79.5798 12.7341 79.5798 14.2306C79.5798 16.5177 77.3158 17.0259 75.5612 17.0259H71.5992L71.5709 7.00237ZM75.0801 11.1812C76.0423 11.1812 77.0328 10.9835 77.0328 9.8259C77.0328 8.78119 76.1272 8.49884 75.2216 8.49884H73.6934V11.1812H75.0801ZM75.2782 15.5294C76.297 15.5294 77.2875 15.3035 77.2875 14.0612C77.2875 12.8188 76.4385 12.593 75.3914 12.593H73.6651V15.5294H75.2782Z" fill="white"/>
<path d="M85.2399 17.2236C81.9854 17.2236 80.5421 15.1624 80.5421 12.0847C80.5421 9.00708 82.1552 6.77649 85.3531 6.77649C87.3624 6.77649 89.3151 7.68002 89.3717 9.93884H87.1077C86.9945 8.92237 86.3153 8.41414 85.3531 8.41414C83.3721 8.41414 82.7778 10.5318 82.7778 12.1412C82.7778 13.7506 83.3721 15.6141 85.2682 15.6141C86.2587 15.6141 86.9945 15.0777 87.136 14.0612H89.4C89.1736 16.3765 87.3341 17.2236 85.2399 17.2236Z" fill="white"/>
</g>
<defs>
<clipPath id="clip0">
<rect width="89.4" height="24" fill="white"/>
</clipPath>
</defs>
</svg>
