<svg width="24" height="24" viewBox="0 0 24 24" fill="none" xmlns="http://www.w3.org/2000/svg">
<circle cx="12" cy="12" r="12" fill="#FF6C40"/>
<path d="M12.1667 10V10.5H12.6667H12.8333V10.8333H11.8333V9.16668H12.1667V10ZM13.1667 5.87378L14.1995 6.90668L14.0733 7.0329L13.1667 6.12624V5.87378ZM12 7.16668H12.1667V7.50001H11.8333V7.16668H12ZM11.5 5.83334V6.16668H11.3333H10.5V5.83334H11.5ZM8.83332 5.83334V6.16668H7.99999H7.49999V6.66668V6.83334H7.16666V6.66668C7.16666 6.20282 7.53613 5.83334 7.99999 5.83334H8.83332ZM14.5 10.5H15.5V10.6667V10.8333H14.5V10.5ZM16.5 11.8333H16.8333V12.8333H16.5V11.8333ZM16.8333 9.54045V9.7929L16.6869 9.64646L15.6271 8.58668L15.7533 8.46045L16.8333 9.54045ZM16 17.8333H16.5V17.3333V17.1667H16.8333V17.3333C16.8333 17.5544 16.7455 17.7663 16.5892 17.9226C16.433 18.0789 16.221 18.1667 16 18.1667H15.1667V17.8333H16ZM7.49999 17.3333V17.8333H7.99999H8.16666V18.1667H7.99999C7.53776 18.1667 7.16666 17.7922 7.16666 17.3333V16.5H7.49999V17.3333ZM16.5 14.5H16.8333V15.5H16.5V14.5ZM12.5 18.1667V17.8333H13.5V18.1667H12.5ZM9.83332 18.1667V17.8333H10.8333V18.1667H9.83332ZM7.16666 13.8333H7.49999V14.8333H7.16666V13.8333ZM7.16666 11.1667H7.49999V12.1667H7.16666V11.1667ZM7.16666 8.50001H7.49999V9.50001H7.16666V8.50001Z" fill="black" stroke="white"/>
</svg>
