<svg width="100" height="23" viewBox="0 0 100 23" fill="none" xmlns="http://www.w3.org/2000/svg">
<g clip-path="url(#clip0)">
<path d="M10.9595 16.3258C15.9247 17.2428 19.5593 12.4327 21.8877 8.27021C22.8195 6.60248 24.2347 2.23624 22.6497 0.586229C21.1983 -1.00991 20.0768 1.08474 19.2163 1.78393L19.8805 2.57059C21.2069 4.24525 20.0532 7.42712 19.2669 9.12735C18.0869 11.2205 15.8595 14.388 13.2565 13.9472C12.6915 13.8146 12.2237 13.2668 12.0261 12.6909C13.4282 11.3034 15.0884 8.86604 16.0215 7.2447C16.8025 5.92575 18.1576 3.37697 16.9079 2.32699C15.8705 1.60808 13.793 2.64326 12.6797 3.58313C12.002 4.19302 11.5453 4.69245 11.0194 5.40314C9.58671 7.34514 8.22248 10.6751 8.36491 13.2383C7.67759 13.7368 6.89148 14.2335 5.958 13.9472C5.03275 13.7397 4.86622 12.9524 4.73492 12.3344C4.14548 8.62044 7.86823 3.93062 9.95667 1.23612C9.95667 1.23612 8.30903 1.68277 7.10658 1.73298C4.34214 1.85131 2.28912 0.565047 0.793962 2.41282C0.344026 3.07037 0.0841805 3.76135 0 4.58288C0.612637 4.05918 1.52036 4.18462 2.38755 4.23429C3.88801 4.36559 4.627 4.54655 5.97955 4.18316C4.77455 5.88266 2.767 9.23363 2.39796 11.3246C2.20239 12.7121 2.21937 14.8993 3.40557 15.8813C5.37112 17.1895 7.32334 16.275 9.06702 15.0706C9.5847 15.6702 10.2236 16.1947 10.9595 16.3258ZM14.2944 4.72112C14.8174 4.4651 14.6605 5.24172 14.6605 5.24172C14.5857 6.12278 13.9467 7.17239 13.4915 7.97768C13.0241 8.80104 11.3859 10.7425 10.6723 11.1599C10.7032 9.98504 11.9607 7.42 12.6035 6.44143C12.9326 5.86604 13.7722 4.97731 14.2944 4.72112Z" fill="white"/>
<path d="M93.3748 7.0172C93.1016 7.37766 92.1693 8.3913 91.8669 8.70775C91.8533 8.72035 91.7113 8.85621 91.7113 8.85621C89.1968 11.3789 87.2751 12.8426 86.1623 13.0786C85.4038 13.2451 85.0557 13.2893 84.7007 12.6049C84.6945 12.5921 84.6861 12.5676 84.6861 12.5676C84.6861 12.5625 84.6496 12.2473 84.6496 12.2473C84.6496 11.3376 85.8318 9.29811 87.4124 7.93515C88.0157 7.40797 88.087 7.17461 88.0954 7.11654C87.87 6.76283 87.7334 6.59666 87.4267 6.46866C86.9873 6.44565 86.3131 6.91257 85.8687 7.22373C85.5542 7.43902 84.662 8.25909 83.7158 9.12354C82.9277 9.84701 82.1132 10.5948 81.6586 10.9688C81.6586 10.9688 81.0249 11.487 80.888 11.6009C80.8938 11.4676 80.9103 11.1999 80.9103 11.1999C80.9271 10.7312 81.4201 9.94891 82.1253 8.8962C82.3806 8.50816 83.0106 7.40797 83.0862 7.21295L83.096 7.1936L83.0847 7.17461C82.8802 6.83934 82.4883 6.57822 82.1753 6.56361C82.1432 6.57585 81.8952 6.77909 81.8952 6.77909C81.3642 7.21295 80.2302 8.23407 79.1353 9.22488C78.1296 10.1343 77.1807 10.9903 76.9448 11.1616C75.0983 12.5322 73.4987 13.4259 71.9207 13.9817C71.638 14.0639 70.6735 14.2954 70.1958 13.7582C70.1958 13.7582 70.0873 13.6373 70.0307 13.5679C70.1023 13.5358 70.2582 13.4693 70.2582 13.4693C71.638 12.8821 73.376 12.0746 74.6367 10.994C74.6557 10.9772 76.5712 9.33408 76.5712 7.7142C76.5712 7.64225 76.5665 7.57414 76.561 7.50348C76.4419 6.92206 75.9438 6.74384 75.2353 6.65236C72.9162 6.66751 70.8327 8.09493 69.7506 9.31125L69.5603 9.51961C69.0582 10.0656 67.5316 11.7251 66.9115 13.1983C66.9115 13.1983 66.8848 13.2641 66.8757 13.2758C66.8724 13.2721 66.8191 13.2948 66.8191 13.2948C65.7738 13.7367 64.638 14.1618 63.3755 14.2947C62.694 14.3794 61.7284 14.4375 61.1876 13.9434C61.1876 13.9434 61.0553 13.8269 60.9965 13.7717C61.1021 13.7148 63.633 12.3617 63.633 12.3617C65.7191 11.0955 67.1167 9.16773 67.1167 8.16359C67.0736 6.99858 65.9835 6.73489 65.0748 6.7223C63.7254 6.73033 62.48 7.22793 60.9078 8.38564C59.9966 9.05725 58.0895 11.2364 57.5793 13.4733C57.5793 13.4733 57.5658 13.5468 57.5559 13.5796C57.515 13.592 57.358 13.6286 57.358 13.6286C56.3591 13.8769 54.681 14.283 54.3717 13.3086C53.8746 11.7251 55.4611 10.1998 56.7327 8.97654C56.7327 8.9749 57.4489 8.27333 57.4489 8.27333C57.5486 8.16103 57.6706 7.89973 57.6366 7.69357C57.6235 7.59551 57.5749 7.52247 57.4865 7.47006C56.8058 7.17041 56.1528 7.4014 55.4611 7.64865C54.9425 7.8318 54.4049 8.01933 53.8359 7.97916C53.8359 7.97916 53.7249 7.96583 53.6577 7.96126C53.6643 7.90155 53.6741 7.77902 53.6741 7.77902C53.703 7.44468 53.8976 7.24454 54.0718 7.0687C54.0755 7.06723 54.1284 7.00935 54.1284 7.00935C54.1584 6.97301 54.1756 6.90344 54.1756 6.82364C54.1756 6.7537 54.1639 6.67482 54.1317 6.60598C54.0868 6.50025 54.0185 6.43615 53.9345 6.42976C53.5364 6.3801 52.8484 6.77361 52.2235 7.40414C51.6231 8.01531 51.2459 8.67506 51.2459 9.1281L51.2517 9.2216C51.255 9.23347 51.2535 9.25812 51.2535 9.25812C51.1801 10.2851 50.2854 11.2693 49.0437 12.6341L48.5044 13.229C48.5075 13.229 48.2972 13.443 48.2972 13.443C47.5529 14.2027 47.0819 14.772 46.9366 15.0865L46.8929 15.1778L46.9948 15.1507C47.522 14.9922 49.0389 14.2589 51.7557 10.8398C51.7557 10.8398 51.7962 10.7913 51.8134 10.7611C51.8488 10.7653 51.9138 10.7756 51.9138 10.7756C52.0409 10.7913 52.1969 10.7255 52.3612 10.6614C52.6377 10.5513 52.9543 10.4284 53.253 10.6256C53.253 10.6256 53.3677 10.699 53.4167 10.7347C53.3644 10.7986 52.8835 11.4128 52.8835 11.4128C52.1256 12.3628 51.3474 13.3379 51.3474 14.508C51.3474 14.7315 51.3755 14.963 51.4412 15.203C51.5859 15.8885 52.2871 16.2128 52.8447 16.2851C53.9732 16.4801 55.3884 15.8556 56.6378 15.3078L57.2703 15.0306C57.6235 14.9349 57.7239 15.1507 57.7988 15.3049C57.8864 15.4926 58.0106 15.7563 58.5548 15.9929C60.3783 16.8183 63.0545 16.4107 66.5116 14.7812C66.5116 14.7812 66.6153 14.7315 66.6799 14.7012C66.7048 14.7625 66.7504 14.8831 66.7504 14.8831C66.9995 15.5525 67.468 15.9663 68.2324 16.1876C71.21 16.5838 73.6653 14.8801 76.0384 13.2341C76.0413 13.2327 77.1212 12.4102 77.2991 12.2747C77.3429 12.3182 77.5361 12.5286 77.5631 12.5625C77.5244 12.6199 76.5197 14.0321 76.5197 14.0321C76.1691 14.5456 75.8415 15.0284 75.6359 15.57C75.6359 15.5656 75.5764 15.7972 75.5764 15.7972L75.6023 15.9166C75.6542 16.009 75.7809 16.0722 75.9672 16.0996C77.7746 15.8494 79.5159 14.3743 80.6645 13.4021L81.0089 13.1107C81.5026 12.6798 81.9756 12.2762 82.1629 12.2349C82.1629 12.2349 82.2349 12.2145 82.2714 12.2046C82.298 12.2349 82.3543 12.2999 82.3543 12.2999C82.3605 12.3065 82.3605 12.3175 82.3605 12.327C82.3605 12.4161 82.2279 12.625 82.1315 12.7711L81.9504 13.0632C81.7962 13.3861 81.4891 14.0193 81.4891 14.5803C81.4891 14.7841 81.5307 14.9824 81.6432 15.1515C82.1841 15.9889 82.6559 16.0148 83.165 16.0437L83.3469 16.0535C85.479 15.9166 87.5724 14.0661 89.6 12.2747L91.1087 10.9688C91.1087 10.9688 92.3281 9.9018 92.5757 9.68139C92.6097 9.75736 92.6608 9.9018 92.6608 9.9018C92.8131 10.2917 92.8456 10.6472 92.8456 10.8756L92.8076 11.3C92.785 11.487 92.4483 12.8014 91.987 13.1742C91.9855 13.1742 91.8906 13.2276 91.8906 13.2276C91.8873 13.2276 91.597 13.3006 91.597 13.3006C90.482 13.5866 89.2187 13.9072 88.7483 15.02C88.7465 15.0244 88.7063 15.2735 88.7063 15.2735C88.7063 15.4232 88.763 15.6379 89.0153 15.8059C89.8023 16.009 90.6178 15.814 91.3369 15.6416L92.2613 15.4436C93.0158 15.448 93.7491 15.5375 94.458 15.6222C95.4455 15.7402 96.3746 15.8534 97.3614 15.7519C98.6393 15.4188 99.6567 13.9697 99.9719 12.7711L100 12.6721L99.9055 12.7199C98.3204 13.5037 96.4908 13.5373 95.0073 12.8112C95.0073 12.8112 94.9043 12.7597 94.8568 12.7345C94.8769 12.6852 94.9229 12.5716 94.9229 12.5716C94.9346 12.5483 95.8381 10.3402 95.8381 7.47937C95.8381 7.34936 95.8367 7.21679 95.833 7.0844H95.8381C95.8195 7.01519 95.8115 6.95037 95.8115 6.88646C95.8115 6.62314 95.9448 6.40694 96.0667 6.21082C96.1891 6.01525 96.2946 5.84452 96.2946 5.64164C96.2946 5.61097 96.2921 5.58285 96.291 5.54979C96.2848 5.54687 96.2848 5.53866 96.2848 5.53245C96.2848 5.50834 96.2921 5.47548 96.2921 5.47548C96.2946 5.47182 96.2946 5.46762 96.2946 5.46342C96.2946 5.39257 96.1836 5.35678 96.1299 5.34181C94.8897 5.02901 94.1852 5.9497 93.3748 7.0172ZM60.7128 11.9544C60.7924 11.2781 61.8044 9.9679 62.3445 9.42063C62.8357 8.92541 63.4752 8.52387 64.0917 8.32008C64.4186 8.24247 64.68 8.30547 64.817 8.49483C64.8703 8.57463 64.8995 8.66685 64.8995 8.76545C64.8995 8.88725 64.8561 9.01671 64.7765 9.14435C64.1005 10.2049 62.358 11.6995 60.9367 12.1491C60.9367 12.1491 60.7716 12.2017 60.677 12.2349C60.6883 12.1444 60.7128 11.9544 60.7128 11.9544ZM70.2674 11.6981C70.4109 10.6868 71.8849 9.18288 71.8991 9.16773C72.3903 8.67378 73.0302 8.27333 73.6495 8.0659C73.9037 7.95633 74.1492 7.97952 74.2996 8.12488C74.357 8.18532 74.4358 8.29598 74.4358 8.48095C74.4358 8.58504 74.4106 8.70921 74.3471 8.86588C74.1901 9.25812 73.0017 10.4098 72.6646 10.7036C72.2881 11.0611 71.2585 11.7755 70.4697 11.9044C70.4697 11.9044 70.3214 11.9285 70.2301 11.9413C70.2422 11.8639 70.2674 11.6981 70.2674 11.6981Z" fill="white"/>
<path d="M41.2891 2.29525H41.2865C39.6822 2.44261 38.1726 3.33664 36.3902 5.19025C35.6621 5.87922 32.296 10.0667 31.7413 13.2509C31.7413 13.2509 31.7318 13.3119 31.7261 13.3379C31.7024 13.3495 31.6496 13.378 31.6496 13.378C31.1617 13.6403 29.6932 14.2713 28.763 14.0365C28.4842 13.9668 28.2758 13.8229 28.1504 13.6096C28.007 13.332 27.9382 13.0493 27.9382 12.7506C27.9382 12.056 28.3222 11.4359 28.6538 10.8807C28.6571 10.8793 28.8324 10.5869 28.8444 10.5668C28.8503 10.5729 28.908 10.5546 28.908 10.5546C29.769 10.3086 31.118 8.66502 31.4613 7.66235L31.4714 7.63368L31.4456 7.61633C30.441 7.00132 29.0924 7.0152 28.1416 7.13334C26.5732 7.31558 24.7881 8.00655 23.3632 8.97819C21.6495 10.149 20.1686 12.5322 19.8587 14.0234C19.6914 14.8761 19.5809 15.7409 20.1709 16.1419C21.3968 16.8545 23.806 15.5609 25.4511 13.9865C25.4511 13.9865 25.6662 13.7816 25.794 13.6585C25.7814 13.8327 25.7407 14.3013 25.7407 14.3013C25.7199 14.5051 25.7009 14.7381 25.7009 14.9689C25.7009 15.4038 25.7738 15.8414 26.061 16.112C27.4172 17.1879 30.2096 16.009 31.7511 14.9554C31.7511 14.9554 31.841 14.8922 31.8881 14.8622C31.9257 14.9072 31.9929 14.9937 31.9929 14.9937C32.4832 15.5996 33.0617 16.2515 33.72 16.3625C35.4412 16.6032 36.7881 15.6113 37.9863 14.504C37.9863 14.504 38.1425 14.3604 38.2206 14.2859C38.2447 14.4123 38.3371 14.84 38.3371 14.84C38.4249 15.283 38.5049 15.7022 38.8486 15.9783C39.718 16.651 41.6654 15.7362 42.7612 14.9576C42.7612 14.9576 43.0143 14.7804 43.1599 14.6742C43.1232 14.8279 43.0392 15.1467 43.0392 15.1467C42.8518 15.8709 42.5054 16.5648 42.1692 17.2354L41.8687 17.8489L41.8186 17.93L41.7294 18.0746C41.2622 18.8218 40.3969 20.2228 39.5536 20.3455L39.4952 20.3542C39.2779 20.2746 39.1398 20.153 39.0668 19.9916L39.0045 19.6779C39.0045 19.3002 39.2032 18.87 39.3772 18.4902L39.4137 18.415L39.3323 18.4208C38.9404 18.4807 38.5906 18.6465 38.206 18.8423C37.4263 19.3043 36.6236 20.3477 36.6236 21.2855C36.6236 21.4805 36.6553 21.6639 36.7225 21.8344C36.8838 22.192 37.308 22.2037 37.4854 22.1942C42.8292 21.6946 45.8264 15.6339 48.0162 11.2065L48.4461 10.3329C48.5783 10.1584 48.5998 10.0526 48.5998 9.99146L48.5958 9.93887C48.5872 9.93303 48.5146 9.83935 48.5146 9.83935C48.5202 9.84574 48.4603 9.52144 48.4603 9.52144C48.5498 9.09341 49.5853 8.19354 49.5961 8.18295C49.5961 8.18532 49.7278 8.08489 49.7278 8.08489C49.8337 8.01605 49.8996 7.9452 49.9022 7.88786C49.9022 7.82632 49.8328 7.7447 49.7278 7.67805C49.5176 7.54329 49.2899 7.44632 48.4214 7.20456C46.8162 6.7548 44.0548 7.09353 41.55 9.51797C41.2876 9.76996 40.8034 10.3804 40.4088 10.8705L39.9022 11.5016C38.6815 12.9259 37.4237 14.4028 35.3441 13.9901C35.0707 13.8776 34.7829 13.649 34.6723 13.3678C34.6125 13.2068 34.6167 13.045 34.6849 12.8989L34.7106 12.847C35.8636 12.0381 37.0487 10.9881 38.2657 9.71427C40.3094 7.52996 42.8122 3.85542 42.4837 2.94276C42.2392 2.30693 41.5097 2.28466 41.2891 2.29525ZM24.3962 9.47213C25.5291 8.91775 26.9446 8.95774 28.0001 9.57439C28.0001 9.57439 28.1213 9.64415 28.1821 9.6814C28.1328 9.75134 27.4048 10.7653 27.4048 10.7653C26.2064 12.2218 23.894 13.6644 22.9063 13.5745V13.5723C22.4456 13.5325 22.1235 13.3065 22.0432 12.9628L22.0271 12.6732C22.0271 11.6879 23.3373 10.1649 24.0241 9.69911C24.0166 9.70404 24.3962 9.47213 24.3962 9.47213ZM37.8012 5.9466C38.3508 5.27261 39.2523 4.67768 39.5219 4.5515C39.7293 4.45326 39.8401 4.57049 39.8695 4.60683C39.915 4.66253 39.9302 4.73867 39.9302 4.81464C39.9302 4.90411 39.9033 4.99249 39.8721 5.03084L39.8821 5.03248C39.4015 6.70897 36.3632 10.2661 34.6153 11.5126C34.6153 11.5126 34.4058 11.6597 34.2807 11.7496C34.2986 11.6163 34.3343 11.3475 34.3343 11.3475C34.4829 10.1547 36.7432 7.24637 37.8012 5.9466ZM41.2182 13.5574L41.1888 13.5387C40.717 13.1976 40.5682 12.7163 40.7636 12.1506C40.9403 11.4928 42.7669 9.47396 44.2119 9.19275C45.5233 8.93838 46.0474 9.38266 46.3003 9.59393C46.3003 9.59777 46.4378 9.70587 46.5039 9.76247C46.4482 9.822 45.7939 10.5236 45.7939 10.5236C44.83 11.8832 42.4178 14.1158 41.2182 13.5574Z" fill="white"/>
</g>
<defs>
<clipPath id="clip0">
<rect width="100" height="22.1962" fill="white"/>
</clipPath>
</defs>
</svg>
