<svg width="16" height="16" viewBox="0 0 16 16" fill="none" xmlns="http://www.w3.org/2000/svg">
<path d="M11.3934 3.03997C10.9267 2.35331 10.3934 1.71331 9.79335 1.13997C9.56002 0.913306 9.16669 1.12664 9.23335 1.44664C9.36002 2.07331 9.49335 2.89997 9.49335 3.63997C9.49335 5.01331 8.59335 6.12664 7.22002 6.12664C6.19335 6.12664 5.35335 5.50664 4.98669 4.61997C4.92002 4.48664 4.89335 4.40664 4.85335 4.25997C4.78002 3.97997 4.41335 3.89331 4.25335 4.13997C4.13335 4.31997 4.02002 4.49997 3.91335 4.69331C3.12002 6.05331 2.66669 7.63997 2.66669 9.33331C2.66669 12.28 5.05335 14.6666 8.00002 14.6666C10.9467 14.6666 13.3334 12.28 13.3334 9.33331C13.3334 7.00664 12.6134 4.84664 11.3934 3.03997ZM7.80669 12.6666C6.62002 12.6666 5.66002 11.7333 5.66002 10.5733C5.66002 9.49331 6.36002 8.73331 7.53335 8.49331C8.51335 8.29331 9.52002 7.87331 10.22 7.21331C10.4067 7.03997 10.7134 7.11997 10.7667 7.36664C10.92 8.04664 11 8.75331 11 9.46664C11.0067 11.2333 9.57335 12.6666 7.80669 12.6666Z" fill="#E03400"/>
</svg>
